<?xml version="1.0" standalone="no"?>
<!DOCTYPE svg PUBLIC "-//W3C//DTD SVG 20010904//EN"
 "http://www.w3.org/TR/2001/REC-SVG-20010904/DTD/svg10.dtd">
<svg version="1.0" xmlns="http://www.w3.org/2000/svg"
 width="16.000000pt" height="16.000000pt" viewBox="0 0 16.000000 16.000000"
 preserveAspectRatio="xMidYMid meet">
<metadata>
Created by potrace 1.11, written by Peter Selinger 2001-2013
</metadata>
<g transform="translate(0.000000,16.000000) scale(0.000512,-0.000512)"
fill="#000000" stroke="none">
<path d="M15545 31199 c-38 -4 -140 -7 -225 -8 -85 0 -265 -7 -400 -16 -135
-8 -330 -20 -435 -26 -104 -5 -309 -24 -455 -40 -146 -16 -328 -36 -405 -44
-186 -20 -385 -50 -575 -85 -85 -16 -209 -36 -275 -45 -66 -9 -175 -32 -243
-51 -68 -19 -176 -46 -240 -60 -700 -151 -954 -217 -1377 -358 -104 -35 -287
-96 -406 -135 -119 -39 -272 -96 -339 -126 -67 -31 -198 -83 -291 -116 -632
-223 -1613 -710 -2404 -1194 -368 -225 -1084 -720 -1349 -934 -67 -53 -164
-128 -216 -166 -182 -133 -308 -240 -735 -625 -513 -463 -694 -644 -1141
-1140 -392 -436 -438 -490 -631 -745 -79 -104 -182 -239 -229 -300 -172 -219
-260 -345 -671 -960 -256 -382 -599 -985 -843 -1480 -293 -595 -413 -868 -538
-1221 -33 -93 -83 -218 -111 -279 -29 -60 -86 -213 -128 -340 -41 -126 -104
-315 -139 -420 -135 -405 -213 -704 -343 -1320 -12 -55 -39 -166 -61 -246 -22
-80 -49 -208 -60 -285 -11 -76 -33 -209 -49 -294 -43 -227 -96 -643 -146
-1145 -23 -234 -68 -1146 -68 -1390 0 -244 45 -1156 68 -1390 50 -502 103
-918 146 -1145 16 -85 38 -218 49 -294 11 -77 38 -205 60 -285 22 -80 49 -191
61 -246 130 -616 208 -915 343 -1320 35 -104 98 -293 139 -420 42 -126 99
-279 128 -340 28 -60 78 -186 111 -279 125 -353 245 -626 538 -1221 244 -495
587 -1098 843 -1480 411 -615 499 -741 671 -960 47 -60 150 -195 229 -300 193
-255 239 -309 631 -745 447 -496 628 -677 1141 -1140 427 -385 553 -492 735
-625 52 -38 149 -113 216 -166 265 -214 981 -709 1349 -934 344 -211 846 -489
1170 -649 553 -274 900 -427 1234 -545 93 -33 224 -85 291 -116 67 -30 220
-87 339 -126 119 -39 302 -100 406 -135 423 -141 677 -207 1377 -358 64 -14
172 -41 240 -60 68 -19 177 -42 243 -51 66 -9 190 -29 275 -45 190 -35 389
-65 575 -85 77 -8 259 -28 405 -44 146 -16 348 -34 450 -40 102 -6 307 -17
455 -26 208 -11 561 -25 680 -26 75 -1 478 15 675 26 140 8 345 19 455 26 110
6 317 24 460 40 143 16 340 38 437 49 193 21 376 49 538 80 58 11 179 32 270
45 91 14 203 36 250 50 47 14 276 69 510 121 500 112 711 168 1030 273 129 43
339 112 466 154 127 42 286 101 354 132 67 31 198 83 291 116 220 78 384 145
664 272 326 148 904 436 1075 535 80 46 170 97 200 112 94 46 123 62 195 108
39 25 133 83 210 130 77 47 195 121 262 164 l122 80 -19 39 -20 38 71 78 c82
90 172 205 218 281 18 28 37 52 41 52 5 0 34 -45 65 -100 32 -55 61 -100 65
-100 8 0 191 128 331 230 l75 55 -74 128 c-41 71 -73 130 -71 131 19 17 424
244 430 241 4 -3 31 -47 60 -99 l54 -93 55 40 c72 53 254 200 303 243 l38 35
-36 60 c-19 33 -35 64 -35 68 0 5 95 63 212 130 193 111 213 121 225 105 11
-15 14 -16 35 -1 13 9 57 48 98 87 l75 70 -112 -64 -112 -65 -123 214 c-68
118 -126 215 -129 215 -4 0 -100 -54 -214 -120 -114 -66 -211 -120 -214 -120
-8 0 -241 404 -241 416 0 5 73 51 163 102 89 51 185 106 213 122 l50 29 120
-209 c65 -115 122 -209 127 -210 4 0 99 52 210 116 111 64 205 118 208 120 3
2 32 -43 64 -99 32 -56 82 -144 113 -196 l55 -93 183 183 c101 101 184 188
184 192 0 9 -137 247 -150 260 -4 5 -103 -46 -220 -113 -117 -68 -215 -119
-220 -114 -11 13 -229 391 -232 405 -3 10 397 249 418 249 6 0 65 -92 130
-205 65 -113 121 -205 124 -205 4 0 99 53 211 119 112 65 207 116 211 114 4
-2 22 -30 40 -63 18 -33 35 -60 39 -60 3 0 62 62 130 137 68 76 144 160 169
187 25 27 41 47 35 44 -5 -3 -97 -56 -203 -117 -106 -61 -196 -111 -200 -111
-11 1 -243 410 -237 420 3 4 89 57 192 116 104 59 198 114 209 121 20 13 26 6
139 -192 65 -113 122 -205 126 -205 14 0 283 340 322 407 4 6 -24 65 -62 132
l-70 120 217 125 216 125 19 -31 c22 -36 20 -37 93 67 l49 70 -35 -21 c-19
-12 -56 -34 -82 -49 l-48 -27 -22 38 c-165 278 -225 390 -215 400 14 12 373
220 398 229 12 5 35 -28 99 -140 46 -80 87 -144 91 -143 20 7 309 438 309 460
0 7 -9 28 -20 46 -11 18 -20 36 -20 40 0 4 36 27 81 52 l81 45 77 130 c43 72
83 140 90 153 11 20 4 36 -61 150 -40 70 -73 133 -73 140 0 16 405 253 422
247 7 -2 17 5 23 16 10 17 8 19 -12 14 -21 -4 -34 14 -143 205 -65 116 -123
210 -128 210 -4 0 -102 -55 -218 -121 -115 -67 -211 -120 -213 -118 -11 14
-236 409 -236 416 0 7 195 123 386 230 l41 23 118 -205 c65 -113 121 -208 125
-210 4 -3 101 49 215 116 157 90 210 117 217 107 5 -7 27 -46 50 -86 23 -39
45 -72 48 -72 9 0 150 298 150 316 0 2 -54 -28 -121 -67 -67 -39 -124 -68
-127 -64 -3 3 -59 97 -123 208 -88 151 -114 205 -106 213 16 14 418 246 421
242 2 -2 38 -65 81 -140 44 -76 82 -138 86 -138 10 0 52 99 119 280 33 91 65
176 71 189 5 13 8 26 5 28 -2 2 -86 -43 -186 -102 -101 -58 -183 -104 -185
-103 -1 2 -54 95 -119 208 -65 113 -121 209 -125 213 -4 4 -103 -47 -220 -114
-127 -74 -215 -119 -221 -113 -7 8 -110 183 -208 355 l-32 56 210 122 c115 66
213 121 218 121 5 0 61 -92 126 -205 65 -113 123 -205 127 -205 5 0 99 52 209
115 109 63 202 115 207 115 5 0 58 -85 118 -189 60 -104 110 -189 111 -188 0
1 27 58 59 127 80 175 177 456 170 491 -4 19 -2 30 9 36 8 4 58 139 111 298
l97 290 -21 36 -20 36 34 19 c28 15 38 29 49 69 22 77 61 235 96 394 31 138
32 146 16 178 l-16 34 -33 -19 c-85 -53 -400 -232 -402 -230 -15 18 -235 408
-235 416 0 10 419 257 425 250 2 -2 51 -86 110 -188 150 -259 131 -234 164
-214 26 15 30 28 60 168 18 83 50 218 72 300 23 86 38 159 35 173 -4 12 -2 23
3 23 5 0 14 37 20 83 7 45 27 168 46 272 18 105 38 215 43 246 l8 56 -189
-109 c-104 -61 -193 -106 -198 -101 -24 24 -238 408 -231 415 5 5 102 62 215
128 l207 119 39 -67 c21 -37 68 -119 105 -182 36 -63 66 -111 66 -107 0 20 51
466 56 489 3 16 3 28 -1 28 -3 0 -65 -34 -137 -75 -72 -42 -132 -74 -134 -73
-7 8 -244 422 -244 427 0 7 395 235 413 238 7 2 39 -45 72 -103 70 -124 68
-126 80 77 l7 120 -34 -17 c-18 -9 -49 -27 -70 -40 -27 -17 -39 -20 -45 -11
-15 18 -221 380 -228 398 -5 13 37 42 199 135 153 89 206 124 206 138 0 22
-230 426 -243 426 -4 0 -102 -55 -218 -121 -115 -67 -211 -120 -213 -118 -11
14 -236 410 -236 416 0 7 198 125 386 230 l41 23 118 -205 c65 -113 121 -208
125 -210 4 -3 61 26 126 64 l118 68 -3 224 c-2 217 -3 225 -27 266 -23 40 -23
42 -6 55 18 13 19 23 5 293 -8 154 -16 281 -17 283 -2 2 -61 -29 -130 -69 -74
-42 -131 -68 -136 -63 -7 7 -200 337 -230 395 -8 15 19 34 200 138 115 67 214
121 219 121 5 0 12 -6 14 -12 3 -7 6 -1 6 14 1 18 -3 26 -12 23 -10 -5 -96
135 -235 382 l-23 42 98 57 c54 31 100 59 102 60 2 2 -13 95 -33 206 -20 112
-40 228 -44 258 -6 37 -12 54 -21 52 -7 -1 -87 -45 -176 -97 -90 -52 -168 -95
-173 -95 -5 0 -60 87 -120 193 -61 105 -117 200 -125 211 -13 18 -25 12 -226
-104 -117 -68 -216 -119 -221 -114 -11 12 -230 394 -233 406 -2 10 400 248
420 248 6 0 64 -92 129 -205 65 -113 121 -205 124 -205 3 0 99 54 212 119 147
85 210 116 216 108 5 -7 35 -58 67 -114 33 -56 60 -101 61 -100 1 1 -11 54
-27 117 -16 63 -29 123 -29 133 0 21 -5 21 -41 0 -15 -9 -30 -15 -32 -12 -24
30 -236 413 -232 419 3 5 46 32 95 60 50 28 90 56 90 61 0 33 -127 499 -136
499 -3 0 -74 -40 -159 -89 l-154 -90 -116 200 c-64 109 -118 205 -121 213 -4
9 54 47 183 121 103 60 194 113 201 119 21 20 -26 136 -123 306 l-88 153 27
22 27 22 -41 89 c-23 49 -64 153 -92 232 l-50 142 -63 -35 -62 -34 -122 210
c-66 116 -121 215 -121 219 0 5 33 27 73 49 39 22 78 45 85 49 11 7 0 42 -53
163 -59 135 -131 287 -141 298 -2 2 -51 -25 -110 -59 -58 -34 -110 -58 -114
-54 -14 16 -240 411 -240 420 1 5 54 40 120 77 l120 68 -45 87 c-68 132 -195
347 -204 345 -5 -1 -59 -32 -122 -68 -62 -36 -118 -64 -124 -61 -6 2 -65 97
-130 210 -65 113 -121 206 -124 206 -4 0 -100 -54 -215 -120 -114 -66 -211
-120 -214 -120 -11 1 -242 411 -237 420 3 4 89 57 192 116 104 59 198 114 209
121 21 13 26 7 134 -181 62 -108 118 -203 125 -212 11 -15 24 -10 133 52 67
38 121 73 122 77 0 15 -254 417 -264 417 -2 0 -44 -23 -93 -51 -48 -28 -100
-57 -115 -65 l-26 -14 -121 210 c-67 115 -121 213 -121 218 0 4 43 32 95 62
52 30 95 58 95 63 0 17 -278 397 -290 397 -5 0 -41 -19 -81 -42 -68 -39 -72
-40 -85 -23 -42 57 -234 406 -229 415 3 6 24 19 46 30 21 11 39 23 39 27 0 10
-100 140 -209 271 -88 105 -105 121 -121 112 -16 -9 -24 -1 -59 63 -42 76
-257 325 -276 319 -5 -2 -87 -48 -181 -103 -94 -54 -175 -99 -180 -99 -5 0
-62 93 -128 207 -109 190 -117 208 -101 220 10 7 71 43 136 80 66 37 119 70
119 73 0 3 -83 88 -184 189 l-184 184 -79 -46 c-70 -41 -79 -44 -90 -30 -7 9
-63 104 -124 211 -79 137 -108 196 -100 202 9 5 -1 18 -31 41 l-43 34 24 -38
c13 -21 22 -39 20 -41 -15 -12 -410 -236 -417 -236 -5 0 -59 87 -120 193 -61
105 -117 201 -125 211 -13 18 -24 13 -224 -102 -116 -67 -213 -122 -216 -122
-3 0 -42 63 -86 140 -80 138 -141 285 -124 300 4 4 95 57 201 118 191 110 193
110 206 89 8 -12 62 -105 121 -207 59 -102 108 -187 110 -189 4 -3 152 78 262
144 l53 32 -133 104 c-151 120 -286 219 -298 219 -4 0 -36 -16 -69 -36 -34
-20 -63 -34 -64 -32 -2 1 -45 76 -96 164 -76 134 -100 167 -141 198 -27 20
-53 36 -58 36 -5 0 -75 -38 -156 -85 -80 -47 -148 -85 -150 -85 -3 0 -14 19
-26 43 -27 53 -139 223 -196 299 -24 31 -43 59 -43 62 0 2 27 21 60 41 33 20
60 38 60 39 0 2 -95 68 -211 146 l-211 143 27 -47 c15 -25 24 -46 20 -46 -3 0
-31 23 -61 52 -36 34 -51 54 -43 59 8 4 -11 21 -50 46 -35 21 -140 89 -234
151 -94 61 -175 112 -180 112 -5 0 -21 8 -35 18 -15 10 -65 36 -112 58 -47 21
-132 66 -190 99 -137 80 -743 379 -1035 512 -280 127 -444 194 -664 272 -93
33 -224 85 -291 116 -68 31 -227 90 -354 132 -127 42 -337 111 -466 154 -319
105 -530 161 -1030 273 -234 52 -463 107 -510 121 -47 14 -159 36 -250 50 -91
13 -212 34 -270 45 -162 31 -345 59 -538 80 -97 11 -294 33 -437 49 -143 16
-350 34 -460 40 -110 6 -306 18 -435 26 -129 9 -302 16 -385 16 -82 0 -186 4
-230 7 -44 4 -111 4 -150 1z m9464 -4303 c67 -115 121 -212 121 -215 0 -4 -62
-42 -137 -86 -76 -43 -148 -85 -160 -93 l-22 -14 0 189 c0 103 -5 230 -11 282
-6 52 -9 95 -8 97 7 6 92 53 94 51 1 -1 57 -96 123 -211z m694 -181 c64 -112
117 -208 117 -212 0 -7 -195 -123 -386 -230 l-40 -23 -122 212 c-67 116 -121
212 -120 213 10 8 424 245 428 245 3 0 58 -92 123 -205z m669 -179 c65 -112
119 -209 120 -216 3 -11 -409 -257 -416 -249 -25 27 -244 425 -237 432 10 10
404 237 411 237 3 0 58 -92 122 -204z m-1504 -375 c40 -71 78 -136 85 -145 11
-13 37 -1 212 101 110 63 205 117 211 120 6 2 66 -91 134 -208 101 -175 120
-214 108 -224 -7 -7 -100 -63 -207 -124 -155 -89 -197 -109 -206 -99 -7 7 -61
99 -120 203 -60 105 -112 195 -117 202 -6 8 -48 -11 -145 -68 -75 -43 -138
-77 -140 -76 -1 2 6 28 16 58 10 30 33 129 52 222 19 92 36 167 39 167 3 0 38
-58 78 -129z m1337 -316 c65 -113 121 -205 126 -205 5 0 98 52 208 115 109 63
203 115 208 115 9 0 256 -420 251 -426 -8 -7 -421 -244 -423 -242 -1 2 -54 95
-119 208 -65 113 -121 209 -125 213 -4 4 -103 -47 -220 -114 -125 -72 -215
-118 -221 -113 -11 12 -228 388 -232 403 -3 11 395 250 418 251 6 0 64 -92
129 -205z m1370 -373 c65 -112 116 -204 114 -206 -18 -16 -424 -244 -429 -241
-11 7 -243 415 -239 419 24 21 425 243 430 238 4 -4 60 -98 124 -210z m-11440
113 c582 -31 1121 -108 1706 -245 358 -84 583 -144 769 -205 74 -24 167 -53
206 -64 39 -12 122 -42 185 -67 63 -25 186 -74 274 -109 88 -35 225 -89 305
-120 132 -53 920 -443 980 -485 14 -10 40 -20 58 -23 18 -3 39 -10 46 -17 8
-6 42 -25 77 -42 35 -17 58 -33 52 -35 -22 -8 -15 -19 29 -48 l42 -28 -22 37
-21 36 32 -14 c18 -7 68 -30 112 -49 44 -20 112 -45 150 -57 39 -12 81 -27 95
-32 14 -6 71 -20 127 -32 l102 -21 -127 -73 c-70 -40 -134 -77 -142 -82 -12
-8 -11 -12 6 -32 24 -27 184 -263 184 -271 0 -4 16 -35 35 -71 l36 -64 154 89
c84 49 158 89 162 89 5 0 63 -92 128 -205 65 -113 122 -205 126 -205 5 0 98
52 208 115 109 63 203 115 208 115 9 0 256 -420 251 -426 -8 -7 -421 -244
-423 -242 -1 2 -54 95 -119 208 -65 113 -121 209 -125 213 -6 6 -382 -200
-420 -229 -14 -11 36 -122 116 -261 51 -89 96 -169 99 -177 4 -10 -24 -31 -95
-71 -98 -55 -101 -58 -101 -92 0 -20 -4 -52 -9 -72 -5 -20 -16 -67 -24 -106
-8 -38 -20 -93 -26 -120 -12 -51 -11 -52 35 -133 25 -45 50 -84 54 -87 4 -3
101 49 215 116 114 66 210 118 212 115 9 -9 243 -418 243 -424 -1 -12 -410
-243 -419 -237 -5 3 -62 97 -127 210 -65 113 -122 205 -127 205 -4 0 -59 -29
-122 -65 -103 -60 -116 -70 -136 -113 -13 -26 -42 -75 -66 -108 -24 -34 -43
-67 -43 -73 0 -7 40 -81 89 -166 l90 -154 -57 -34 c-109 -66 -338 -196 -354
-202 -12 -5 -27 14 -63 77 -26 46 -49 85 -51 87 -2 2 -27 -14 -56 -36 -82 -62
-249 -173 -260 -173 -5 0 -22 -9 -38 -20 -15 -11 -40 -24 -55 -30 -25 -10 -26
-12 -13 -33 30 -45 80 -138 77 -141 -16 -12 -412 -236 -417 -236 -4 0 -37 53
-75 118 l-67 119 -48 -8 c-115 -20 -216 -29 -331 -30 -68 0 -133 -5 -144 -11
-14 -7 -22 -7 -28 3 -4 7 -36 16 -71 20 -102 12 -166 26 -343 71 -44 12 -84
24 -90 28 -25 18 -147 61 -160 56 -8 -3 -19 3 -25 14 -5 10 -20 22 -32 26 -13
4 -39 17 -58 30 -19 13 -43 24 -53 24 -11 0 -96 40 -190 90 l-171 90 -77 -45
c-43 -25 -82 -45 -86 -45 -4 0 -35 49 -69 108 -51 90 -68 111 -105 132 -40 22
-174 74 -224 86 -13 4 -67 -22 -153 -72 -107 -62 -136 -74 -143 -63 -5 8 -45
78 -90 155 l-81 141 -71 16 c-144 32 -124 36 -264 -46 -70 -41 -137 -79 -149
-85 -19 -10 -26 -2 -98 123 l-77 134 -47 10 c-26 6 -94 16 -152 22 l-106 11
-112 -65 -111 -65 -45 77 -45 78 -119 7 c-144 8 -393 9 -438 0 l-32 -6 118
-206 119 -205 -206 -119 c-114 -65 -211 -117 -217 -115 -19 8 -249 418 -240
426 5 5 92 56 194 115 176 101 183 106 144 106 -42 0 -446 -39 -450 -43 -2 -1
19 -41 46 -87 27 -47 50 -88 50 -91 0 -3 -95 -61 -212 -129 -201 -116 -213
-122 -226 -104 -8 11 -52 86 -99 167 -74 129 -88 148 -107 144 -200 -44 -375
-95 -422 -122 -25 -15 -45 -20 -50 -15 -12 12 -124 -23 -271 -84 -62 -25 -118
-46 -125 -46 -7 0 -32 -9 -55 -20 l-42 -19 26 -46 c22 -39 23 -49 12 -59 -12
-11 -318 -189 -386 -225 -20 -10 -24 -7 -58 54 -20 36 -39 65 -42 65 -14 0
-268 -141 -336 -186 -43 -29 -84 -55 -90 -57 -8 -3 0 -28 25 -74 l38 -70 -211
-122 c-116 -67 -212 -121 -214 -119 -1 2 -14 24 -29 50 l-27 47 -52 -37 c-61
-43 -253 -197 -309 -248 -28 -25 -37 -40 -33 -54 5 -15 -10 -28 -76 -67 -83
-49 -289 -240 -289 -268 0 -14 174 -321 195 -343 10 -11 46 6 201 96 104 60
198 114 210 120 19 10 29 -3 144 -204 68 -118 121 -216 119 -218 -2 -2 -97
-58 -211 -124 l-207 -120 -123 214 c-68 118 -126 214 -130 214 -3 0 -101 -55
-217 -121 -116 -67 -213 -120 -215 -118 -2 2 -29 49 -61 104 l-59 99 -22 -29
c-13 -17 -46 -59 -74 -95 -28 -36 -87 -122 -133 -191 -45 -69 -86 -132 -92
-140 -5 -9 -28 -43 -50 -78 -22 -34 -58 -90 -81 -124 -22 -35 -69 -115 -103
-178 l-61 -116 55 -94 c30 -52 55 -96 55 -99 0 -3 -63 -41 -139 -85 l-140 -80
-41 -92 -42 -92 92 -160 c50 -88 94 -162 98 -165 4 -2 101 50 215 116 114 66
209 119 211 117 2 -2 59 -98 125 -214 120 -206 121 -210 101 -225 -35 -26
-400 -233 -404 -229 -1 2 -58 100 -126 217 -118 205 -123 212 -144 199 -11 -7
-91 -53 -176 -102 -85 -49 -162 -95 -171 -102 -9 -8 -22 -33 -27 -56 -11 -41
-11 -42 93 -223 58 -99 105 -185 105 -190 -1 -5 -76 -52 -168 -104 l-167 -96
-14 -72 -13 -71 96 -167 c53 -91 96 -167 96 -169 0 -2 -45 -29 -236 -139 -1
-1 -7 -98 -13 -215 l-11 -215 36 -60 c36 -62 36 -61 -8 -86 -15 -9 -17 -23
-12 -113 5 -106 34 -440 39 -445 1 -1 62 32 136 74 73 43 134 74 136 68 2 -5
57 -101 122 -214 65 -113 117 -208 115 -211 -2 -4 -90 -57 -196 -118 -106 -61
-199 -115 -207 -120 -11 -7 12 -53 108 -218 66 -115 121 -214 121 -219 0 -5
-25 -22 -55 -39 -30 -16 -55 -32 -55 -36 0 -21 63 -210 97 -289 23 -52 46
-114 52 -137 6 -23 16 -45 22 -48 5 -4 52 18 104 48 67 39 97 52 103 44 5 -7
60 -101 122 -209 63 -109 116 -198 119 -198 4 0 99 54 214 120 206 118 207
119 221 97 38 -60 236 -410 234 -412 -18 -14 -410 -235 -417 -235 -5 0 -59 87
-120 193 -61 106 -117 202 -125 212 -12 17 -20 14 -130 -50 l-117 -67 76 -144
c41 -79 95 -173 120 -209 25 -37 45 -70 45 -76 0 -18 21 -9 136 57 63 37 116
65 118 63 11 -14 236 -409 236 -416 0 -4 -38 -29 -83 -56 -132 -75 -126 -65
-83 -123 103 -138 274 -344 286 -344 5 0 36 16 69 35 32 19 63 35 68 35 5 0
62 -92 127 -205 65 -113 123 -205 127 -205 5 0 98 52 207 115 109 63 203 115
208 115 7 0 231 -374 252 -420 1 -3 -68 -46 -153 -95 -85 -49 -155 -92 -155
-95 0 -3 25 -23 56 -45 31 -22 82 -61 113 -86 31 -26 105 -78 164 -117 l108
-70 60 35 c33 20 61 34 63 32 1 -2 27 -47 56 -99 79 -141 79 -141 204 -208
l115 -61 157 90 c99 58 159 88 166 81 5 -5 60 -98 123 -207 87 -151 112 -202
103 -212 -6 -7 -8 -13 -5 -13 3 0 12 -3 20 -6 11 -4 14 0 11 13 -4 15 34 40
202 137 197 114 208 118 221 100 18 -25 221 -377 229 -397 4 -11 -5 -23 -27
-36 -22 -14 -28 -22 -18 -25 8 -2 29 -9 48 -15 59 -19 66 -15 43 24 l-21 34
142 82 c78 45 176 102 217 125 l74 44 31 -53 c146 -257 211 -367 217 -367 4 0
100 54 214 120 114 66 208 119 209 118 1 -2 43 -76 94 -164 l92 -161 46 -7
c25 -3 80 -6 122 -6 l76 0 129 75 c71 41 133 72 137 69 4 -2 24 -33 44 -69 31
-55 40 -65 63 -65 39 1 513 48 517 52 2 2 -39 76 -91 166 -52 90 -94 167 -94
171 0 14 422 253 430 244 11 -12 231 -396 233 -407 1 -5 -38 -33 -88 -63 -49
-29 -79 -51 -65 -48 14 3 59 12 100 20 41 9 79 20 83 24 5 5 2 20 -8 34 l-16
25 210 121 c115 67 212 121 214 121 3 0 26 -38 53 -84 l48 -84 48 14 c26 8 95
35 152 59 58 25 111 45 118 45 15 0 158 67 158 73 0 3 -29 56 -65 118 -35 62
-61 117 -57 121 9 9 405 238 412 238 3 0 36 -55 74 -123 38 -67 73 -127 78
-134 7 -9 32 0 96 34 73 39 306 187 336 214 5 5 -22 62 -62 132 -40 68 -72
128 -72 133 1 7 379 231 410 242 5 2 26 -26 47 -62 20 -36 40 -66 43 -66 14 1
187 280 173 280 -2 0 -59 -32 -125 -70 -66 -39 -122 -69 -123 -68 -2 2 -57 97
-123 212 l-121 209 216 125 c167 96 218 121 224 111 5 -8 44 -74 86 -147 72
-125 77 -132 88 -110 14 28 37 115 60 223 9 44 21 96 26 116 9 37 12 99 5 99
-2 0 -62 -34 -133 -75 -71 -41 -134 -75 -139 -75 -5 0 -63 92 -128 205 -65
113 -122 207 -126 210 -5 3 -104 -49 -220 -116 -116 -67 -215 -118 -219 -113
-4 5 -60 100 -124 211 l-116 202 142 82 c78 45 176 102 217 125 l74 44 31 -53
c146 -257 211 -367 217 -367 4 0 100 54 214 120 114 66 208 119 209 118 1 -2
26 -45 55 -95 29 -51 55 -93 57 -93 8 0 -7 151 -19 198 l-11 42 -34 -21 c-23
-14 -38 -18 -44 -12 -20 20 -238 407 -233 414 2 4 35 24 72 45 100 55 97 45
49 137 -43 83 -173 283 -210 324 l-20 23 -46 -26 c-25 -15 -60 -35 -77 -45
l-31 -19 -122 211 c-84 146 -119 215 -112 223 7 8 -1 18 -25 34 l-35 23 16
-32 c9 -17 15 -32 13 -33 -18 -13 -411 -236 -416 -236 -4 0 -61 95 -127 210
-66 115 -124 210 -129 210 -5 0 -104 -54 -219 -121 -115 -66 -210 -119 -212
-117 -2 2 -57 96 -123 210 -85 147 -116 210 -109 217 8 8 5 11 -11 11 -12 0
-22 -4 -22 -9 0 -7 -261 -163 -412 -247 -3 -2 -22 25 -42 60 l-36 65 -48 -21
c-79 -33 -125 -57 -157 -78 -16 -11 -37 -20 -45 -20 -8 0 -31 -9 -50 -20 -19
-11 -63 -34 -97 -51 -35 -17 -63 -32 -63 -34 0 -3 20 -39 45 -81 25 -42 44
-78 43 -79 -8 -8 -421 -245 -423 -243 -1 2 -35 60 -75 131 -40 70 -76 127 -79
127 -3 0 -44 -5 -91 -10 -47 -6 -142 -10 -212 -10 -117 -1 -131 -3 -170 -25
-24 -14 -46 -25 -50 -25 -4 0 -15 13 -24 30 -15 24 -28 31 -73 40 -31 6 -79
18 -107 26 -28 8 -60 14 -71 14 -23 0 -149 36 -174 49 -8 5 -46 21 -84 37
l-69 27 -39 -21 c-22 -12 -43 -19 -48 -17 -4 3 -23 32 -41 65 -20 37 -39 60
-50 60 -9 0 -20 5 -23 10 -4 6 -61 48 -127 93 -67 45 -129 88 -139 96 -17 12
-34 4 -160 -68 -78 -45 -142 -81 -143 -79 -16 21 -236 412 -236 418 0 4 42 32
94 61 l93 54 -50 74 c-58 87 -128 217 -157 292 -33 89 -26 88 -139 24 -56 -32
-103 -56 -105 -54 -12 14 -236 407 -236 415 0 5 75 51 165 103 122 70 164 99
161 110 -3 9 -6 63 -7 121 l-2 105 -69 122 c-38 68 -72 124 -76 127 -4 2 -99
-49 -212 -115 -113 -65 -210 -119 -216 -119 -14 0 -246 400 -240 415 7 18 417
248 426 239 4 -5 58 -97 120 -204 62 -107 115 -198 119 -202 3 -3 48 18 98 48
101 60 96 53 122 183 6 30 28 95 48 144 l36 91 -19 35 c-11 20 -37 66 -57 102
l-37 66 168 96 c141 81 173 104 203 146 l37 49 -115 197 c-62 109 -110 201
-106 205 15 14 414 242 417 239 1 -2 33 -58 70 -123 38 -65 76 -132 85 -147
l18 -29 84 59 c46 33 144 91 217 131 72 39 132 73 132 75 0 12 -164 285 -172
285 -5 0 -102 -54 -216 -120 -117 -68 -210 -116 -215 -111 -11 11 -237 402
-237 410 0 6 400 238 419 243 6 2 64 -87 127 -197 64 -110 119 -204 124 -208
4 -4 90 40 191 99 101 58 196 112 211 120 l26 14 88 -153 c48 -83 91 -157 96
-163 10 -13 7 -14 233 75 72 28 155 58 185 67 30 9 59 19 63 23 4 4 -30 73
-76 152 -46 79 -97 169 -115 200 l-32 57 211 122 c116 67 212 120 214 118 8
-10 235 -406 239 -418 4 -11 -35 -38 -144 -100 -82 -47 -148 -86 -146 -87 1
-1 24 5 51 13 28 8 75 20 105 25 54 10 191 48 199 55 2 1 -7 19 -19 39 -12 20
-19 40 -14 44 16 14 414 241 421 241 5 0 37 -52 73 -115 36 -63 69 -115 73
-115 5 0 100 9 210 20 318 31 572 38 798 24 60 -4 109 -3 109 1 0 10 -139 253
-148 259 -4 2 -99 -49 -212 -115 -113 -65 -210 -119 -216 -119 -17 0 -249 409
-238 420 10 10 387 228 408 236 10 4 50 -57 136 -206 118 -204 123 -210 144
-197 103 67 399 228 405 221 10 -10 230 -391 238 -409 3 -8 -30 -33 -87 -67
-86 -50 -90 -53 -63 -59 15 -4 48 -7 73 -8 25 -1 74 -8 110 -16 36 -7 66 -12
68 -10 2 2 -14 34 -37 72 -22 37 -37 71 -33 75 4 3 100 60 214 126 146 84 210
117 216 108 5 -6 60 -100 122 -208 63 -109 116 -198 120 -198 3 0 99 54 213
119 205 119 207 120 221 98 44 -71 237 -409 234 -412 -2 -1 -33 -20 -71 -41
-64 -37 -66 -39 -45 -51 13 -7 48 -20 78 -29 30 -9 77 -28 103 -41 27 -13 50
-23 52 -21 2 2 -19 43 -47 91 -28 48 -49 89 -46 92 2 2 98 59 213 125 192 111
210 120 222 104 24 -33 235 -405 232 -408 -2 -1 -59 -34 -126 -72 -67 -38
-123 -72 -123 -76 0 -3 71 -43 158 -88 86 -45 195 -107 242 -137 338 -217 452
-292 497 -331 l53 -44 114 64 114 65 118 -205 c66 -113 121 -209 123 -215 2
-5 -9 -19 -24 -31 l-27 -22 86 -78 c48 -44 88 -77 91 -75 2 3 -20 46 -50 97
l-54 92 22 14 c12 8 109 64 216 125 141 81 196 109 202 99 4 -6 59 -101 121
-210 83 -145 117 -196 128 -192 8 3 104 57 213 120 109 64 200 114 202 112 7
-8 235 -406 239 -418 4 -11 -50 -47 -195 -130 -110 -63 -206 -116 -212 -118
-7 -1 -66 92 -132 208 -66 115 -124 210 -130 210 -5 0 -94 -49 -196 -108
l-186 -107 69 -75 c39 -41 113 -128 165 -192 52 -65 98 -120 101 -122 4 -2 72
34 152 80 80 46 148 84 151 84 3 0 55 -84 114 -187 59 -104 114 -198 122 -209
13 -21 9 -25 -121 -100 l-134 -77 37 -56 c21 -31 46 -72 56 -91 10 -19 32 -53
49 -75 17 -21 51 -79 76 -127 l46 -88 129 75 130 74 30 -53 c145 -254 211
-366 217 -366 3 0 100 54 214 120 114 66 209 119 209 117 17 -21 246 -429 244
-432 -11 -10 -408 -235 -415 -235 -6 0 -64 94 -129 210 -66 115 -124 209 -128
210 -10 0 -287 -160 -287 -166 0 -3 14 -33 31 -67 18 -34 44 -98 59 -142 38
-112 102 -265 109 -261 302 175 344 197 352 185 5 -8 59 -101 120 -207 62
-106 115 -194 118 -196 3 -2 100 50 214 116 114 66 210 119 212 117 15 -16
244 -423 240 -429 -10 -16 -419 -244 -422 -235 -12 32 -244 420 -250 418 -4
-1 -102 -56 -217 -123 -115 -66 -210 -119 -211 -118 -1 2 -11 19 -23 38 -20
33 -22 33 -21 10 1 -39 13 -65 28 -65 12 0 251 -399 251 -420 0 -5 -36 -30
-79 -54 l-78 -44 8 -36 c4 -20 18 -142 30 -272 l23 -235 177 102 177 102 118
-206 c66 -114 119 -213 119 -220 0 -12 -79 -61 -361 -223 l-51 -29 -73 128
c-40 70 -79 135 -85 145 -10 14 -12 -24 -13 -183 l0 -201 44 26 c24 14 64 36
88 50 l43 25 40 -67 c22 -38 77 -132 122 -210 46 -79 84 -143 86 -143 2 0 88
49 192 109 103 59 198 113 210 119 20 11 27 1 142 -197 67 -116 121 -214 121
-218 0 -5 -93 -62 -206 -127 -197 -114 -207 -119 -221 -100 -8 10 -64 106
-125 212 -60 105 -114 192 -119 192 -5 0 -102 -54 -216 -120 l-208 -120 -17
21 c-10 12 -18 17 -18 13 0 -5 -3 -20 -7 -33 -5 -19 -3 -22 13 -18 16 5 38
-27 137 -201 65 -114 119 -211 119 -217 1 -5 -86 -61 -193 -123 -107 -62 -200
-116 -208 -121 -10 -6 14 -56 108 -218 66 -116 121 -214 121 -219 0 -5 -96
-64 -212 -130 -190 -109 -214 -120 -225 -105 -7 9 -13 11 -13 4 0 -6 -3 -19
-6 -27 -4 -12 -2 -15 9 -11 10 5 47 -50 137 -205 68 -118 119 -215 114 -220
-8 -8 -339 -201 -391 -229 -21 -11 -25 -7 -60 54 -20 36 -40 65 -43 65 -7 0
-143 -260 -138 -265 2 -2 46 21 98 51 52 31 102 60 111 64 12 7 38 -30 135
-200 65 -115 122 -209 127 -210 4 0 99 52 210 116 111 64 205 118 208 120 3 2
61 -94 129 -213 100 -173 121 -217 109 -224 -7 -5 -103 -60 -211 -123 l-197
-114 -123 214 c-68 118 -126 214 -129 214 -4 0 -100 -54 -214 -120 -114 -66
-211 -120 -214 -120 -4 0 -47 70 -96 155 -48 85 -91 155 -94 155 -3 0 -49 -66
-101 -147 -52 -81 -121 -179 -152 -218 -32 -38 -58 -74 -58 -80 0 -5 14 -32
30 -60 16 -27 30 -53 30 -57 0 -3 -69 -46 -152 -94 -114 -65 -166 -102 -203
-142 -27 -30 -51 -58 -53 -62 -1 -3 48 -93 109 -199 61 -106 110 -194 108
-196 -11 -10 -408 -235 -415 -235 -5 0 -45 61 -88 135 l-78 135 -107 -93 c-59
-50 -148 -125 -199 -166 l-91 -74 26 -46 c15 -25 33 -55 40 -66 22 -33 15 -42
-33 -50 -26 -4 -61 -13 -78 -20 -17 -7 -62 -23 -100 -35 -38 -11 -107 -37
-154 -58 -73 -32 -86 -34 -96 -21 -9 13 -25 6 -111 -47 -55 -35 -138 -86 -185
-115 -140 -85 -834 -432 -990 -494 -80 -31 -217 -85 -305 -120 -88 -35 -211
-84 -274 -109 -63 -25 -146 -55 -185 -67 -39 -11 -132 -40 -206 -64 -303 -100
-919 -249 -1322 -320 -720 -129 -1505 -172 -2268 -125 -593 36 -1059 106
-1665 249 -394 94 -594 147 -755 201 -63 22 -147 48 -186 60 -39 11 -122 41
-185 66 -63 26 -186 75 -274 109 -88 35 -225 89 -305 120 -144 57 -827 397
-990 492 -121 71 -265 162 -410 258 -69 45 -178 117 -243 159 -104 67 -237
163 -518 374 -160 119 -486 397 -684 583 -38 36 -113 102 -165 148 -52 45
-117 108 -144 139 -27 31 -110 125 -186 207 -75 83 -152 168 -171 190 -19 22
-72 83 -119 136 -120 135 -271 323 -377 469 -51 69 -129 176 -175 238 -46 62
-113 160 -149 218 -35 58 -87 139 -116 179 -51 72 -202 313 -271 430 -19 33
-130 249 -246 480 -198 393 -253 518 -361 805 -24 63 -59 151 -78 195 -154
355 -376 1178 -487 1807 -190 1076 -190 2250 0 3326 111 629 333 1452 487
1807 19 44 54 132 78 195 108 287 163 412 361 805 116 231 227 447 246 480 69
117 220 358 271 430 29 40 81 121 116 179 36 58 103 156 149 218 46 62 124
169 175 238 106 146 257 334 377 469 47 53 100 114 119 136 19 22 96 108 171
190 76 83 159 176 186 207 27 31 92 94 144 139 52 46 127 112 165 148 198 186
524 464 684 583 281 211 414 307 518 374 65 42 174 114 243 159 145 96 289
187 410 258 163 95 846 435 990 492 80 31 217 85 305 120 88 34 211 83 274
109 63 25 146 55 185 66 39 12 123 38 186 60 262 88 956 257 1345 326 338 60
774 109 1145 129 481 25 562 25 1045 0z m8535 -102 c41 -71 80 -138 87 -149
13 -21 7 -26 -196 -143 -115 -67 -212 -121 -215 -121 -3 0 -10 9 -16 21 -10
17 -2 33 50 112 34 51 96 163 138 249 42 87 78 158 78 158 1 0 34 -57 74 -127z
m669 -140 c64 -111 121 -202 126 -203 6 0 102 54 215 119 l205 119 16 -27 c43
-72 219 -380 224 -393 5 -12 -38 -41 -172 -118 -98 -56 -192 -111 -210 -121
l-31 -20 -124 216 c-91 159 -127 213 -138 209 -8 -3 -104 -57 -212 -120 -108
-63 -201 -114 -205 -114 -16 0 -246 411 -236 421 21 21 399 237 412 236 8 -1
66 -93 130 -204z m1361 -354 c63 -110 116 -206 118 -213 3 -12 -399 -251 -420
-251 -14 0 -246 410 -237 419 9 10 411 245 419 245 3 0 57 -90 120 -200z
m-2226 -146 c107 -185 117 -207 102 -218 -9 -7 -104 -63 -212 -125 -164 -94
-198 -110 -208 -99 -15 16 -176 294 -176 304 0 3 23 29 51 57 28 28 86 91 129
141 69 79 154 146 185 147 6 0 64 -93 129 -207z m2900 -42 c66 -115 119 -213
119 -218 0 -8 -398 -243 -412 -243 -7 0 -246 409 -246 422 0 8 403 248 415
247 3 0 59 -94 124 -208z m-2226 -146 c84 -144 117 -212 109 -217 -7 -3 -102
-58 -211 -122 l-200 -115 -31 52 c-151 253 -218 380 -204 388 211 125 405 234
410 230 4 -3 61 -100 127 -216z m2925 -45 c65 -112 114 -207 109 -212 -5 -5
-101 -62 -215 -127 l-206 -119 -20 33 c-126 213 -222 388 -217 393 17 17 412
241 421 238 6 -1 63 -94 128 -206z m-2240 -120 c58 -102 112 -193 119 -203 12
-17 28 -9 222 103 115 67 212 117 216 113 12 -14 240 -414 240 -421 0 -12
-410 -243 -419 -237 -5 3 -62 97 -127 210 -65 113 -122 205 -127 205 -4 0
-103 -55 -218 -121 -116 -67 -211 -120 -213 -118 -14 19 -236 410 -236 416 0
13 423 254 431 245 3 -4 54 -90 112 -192z m-2177 -230 c37 -66 72 -120 77
-120 4 0 98 52 207 115 110 63 204 115 209 115 14 0 254 -421 244 -430 -4 -4
-99 -59 -210 -123 l-203 -116 -48 82 c-27 45 -81 140 -122 210 -40 70 -76 130
-80 132 -4 3 -101 -49 -215 -115 -114 -66 -211 -120 -215 -120 -9 0 -155 249
-149 254 2 1 42 19 89 41 47 21 97 47 112 57 14 10 30 18 35 18 4 0 49 27 98
60 50 32 93 59 96 60 4 0 37 -54 75 -120z m3547 -143 c64 -112 117 -208 117
-213 0 -5 -73 -51 -163 -102 -89 -51 -185 -106 -212 -122 l-51 -29 -122 212
c-86 149 -118 214 -109 219 140 84 405 236 412 237 6 1 63 -91 128 -202z
m-2228 -142 c65 -113 116 -207 114 -209 -20 -21 -424 -245 -430 -239 -23 24
-241 417 -233 420 5 2 101 57 214 122 112 66 207 118 211 115 3 -2 59 -96 124
-209z m2880 -7 c54 -95 110 -192 122 -214 l23 -42 -211 -122 c-116 -67 -212
-120 -214 -118 -24 29 -246 433 -240 435 6 2 98 55 205 117 107 63 200 115
205 115 6 1 55 -77 110 -171z m-2205 -181 l119 -206 -57 -34 c-109 -65 -338
-196 -353 -202 -13 -5 -44 41 -139 206 -67 116 -118 215 -113 219 25 25 409
238 416 231 4 -4 61 -101 127 -214z m-2890 26 c52 -91 96 -169 98 -173 3 -8
-410 -250 -425 -250 -7 0 -231 382 -241 409 -2 5 40 34 92 65 84 50 110 59
228 85 73 16 138 29 143 30 6 0 53 -74 105 -166z m-1030 102 c69 -8 185 -15
257 -16 l133 0 25 -42 c22 -37 23 -43 10 -53 -31 -23 -406 -236 -410 -233 -1
2 -51 87 -109 188 l-106 184 37 -7 c21 -4 94 -13 163 -21z m1688 -263 c62
-107 112 -197 112 -202 0 -8 -384 -236 -408 -242 -12 -3 -255 409 -250 424 2
4 95 61 208 126 177 102 206 116 216 103 6 -9 61 -103 122 -209z m2924 -45
c116 -201 121 -207 142 -194 103 67 399 228 405 221 28 -30 242 -417 235 -424
-23 -22 -410 -238 -416 -232 -3 4 -57 95 -118 202 -62 107 -118 200 -124 207
-8 9 -61 -18 -216 -108 -113 -65 -210 -119 -216 -119 -17 0 -249 409 -238 420
19 18 409 239 418 237 5 -2 63 -96 128 -210z m-2237 -127 c89 -154 124 -208
135 -204 8 3 104 57 213 120 109 64 200 114 202 112 7 -8 235 -406 239 -418 4
-11 -50 -47 -195 -130 -110 -63 -206 -116 -212 -118 -7 -1 -66 92 -132 208
-66 115 -124 210 -129 210 -5 0 -104 -54 -219 -121 -162 -93 -212 -118 -218
-108 -54 86 -230 401 -227 409 2 8 403 247 418 249 3 1 59 -93 125 -209z
m3601 -235 c65 -113 121 -205 124 -205 3 0 99 54 213 119 205 119 207 120 221
98 40 -63 237 -409 234 -412 -16 -13 -409 -235 -416 -235 -6 0 -60 87 -120
193 -61 105 -117 201 -125 211 -13 18 -24 13 -226 -104 -119 -69 -216 -119
-220 -114 -11 12 -231 394 -234 406 -2 10 414 257 425 251 3 -2 59 -95 124
-208z m-2233 -131 c65 -112 115 -209 112 -213 -3 -5 -89 -58 -192 -117 -104
-59 -198 -114 -209 -121 -20 -13 -26 -6 -140 194 -66 114 -119 211 -119 215 0
9 404 246 420 247 6 0 63 -92 128 -205z m-2233 -134 c62 -107 115 -199 119
-203 4 -4 102 46 216 113 115 66 212 116 216 112 13 -14 239 -410 239 -418 0
-5 -93 -63 -206 -128 -194 -112 -208 -118 -220 -101 -8 10 -64 106 -125 212
-61 106 -115 193 -120 193 -5 0 -102 -54 -216 -120 -117 -67 -211 -116 -216
-111 -11 11 -237 402 -237 410 0 11 425 250 431 243 4 -4 57 -95 119 -202z
m2904 -49 c66 -115 118 -213 116 -217 -5 -10 -411 -246 -416 -242 -7 8 -244
422 -244 427 0 8 401 240 415 240 6 0 64 -93 129 -208z m2927 -51 c66 -113
119 -207 119 -210 -1 -7 -419 -245 -427 -244 -7 2 -243 404 -243 415 0 8 414
247 424 245 5 -1 62 -94 127 -206z m-2227 -143 c60 -103 112 -189 117 -192 4
-3 102 48 216 114 114 66 208 119 209 118 8 -8 244 -421 244 -426 0 -8 9 -2
-237 -144 l-182 -105 -123 214 c-68 118 -126 214 -130 214 -4 0 -100 -54 -214
-120 -114 -66 -210 -120 -213 -120 -7 0 -241 404 -241 416 1 5 96 64 212 131
189 108 213 120 223 105 7 -9 60 -101 119 -205z m-2249 -104 c60 -104 114
-198 122 -209 13 -21 7 -26 -203 -147 l-218 -126 -84 147 c-47 81 -102 176
-123 212 -28 46 -35 66 -26 72 6 3 102 59 212 122 110 64 203 116 206 116 4 0
55 -84 114 -187z m-2225 -144 c63 -110 116 -206 118 -213 3 -12 -399 -251
-420 -251 -14 0 -246 410 -237 419 9 10 411 245 419 245 3 0 57 -90 120 -200z
m2906 -56 c66 -114 119 -211 119 -216 0 -4 -92 -62 -205 -127 -156 -90 -208
-116 -216 -107 -14 15 -235 397 -237 411 -2 9 388 243 409 245 6 1 65 -92 130
-206z m2927 -48 c64 -112 117 -208 117 -212 0 -7 -195 -123 -386 -230 l-40
-23 -122 212 c-67 116 -121 212 -120 213 10 8 424 245 428 245 3 0 58 -92 123
-205z m-5159 -84 c66 -115 119 -213 119 -218 0 -8 -399 -243 -413 -243 -7 0
-245 410 -245 423 0 7 402 246 415 246 3 0 59 -94 124 -208z m2937 -69 c61
-106 108 -197 103 -201 -30 -27 -418 -241 -425 -234 -24 25 -237 409 -230 416
5 5 100 61 212 126 178 104 206 117 216 103 7 -9 63 -103 124 -210z m2891 -26
c65 -112 119 -209 120 -216 3 -11 -409 -257 -417 -249 -19 20 -243 425 -237
431 10 9 405 238 412 238 3 0 58 -92 122 -204z m-5129 -97 c118 -204 118 -204
96 -219 -12 -8 -109 -65 -215 -127 l-193 -112 -117 202 c-64 110 -117 207
-118 214 -1 14 402 254 419 249 5 -1 63 -94 128 -207z m2906 -53 l120 -209
-206 -119 c-113 -65 -211 -117 -217 -115 -16 7 -249 417 -242 425 20 19 412
239 418 234 4 -4 61 -101 127 -216z m2921 -39 c63 -111 115 -205 115 -210 0
-9 -404 -246 -420 -247 -15 0 -248 411 -238 421 15 14 408 239 418 238 6 0 62
-91 125 -202z m-5157 -88 c64 -112 116 -208 114 -214 -3 -8 -176 -112 -352
-210 l-63 -35 -121 210 c-66 115 -121 213 -121 218 0 10 403 242 415 238 6 -1
63 -94 128 -207z m2917 -34 c62 -107 118 -201 124 -210 9 -12 41 3 211 101
110 64 205 118 211 121 6 2 66 -90 134 -208 101 -175 120 -214 108 -224 -24
-23 -400 -235 -407 -230 -4 2 -61 97 -126 210 -65 113 -121 207 -124 209 -3 2
-100 -52 -216 -119 -157 -92 -213 -120 -221 -111 -20 19 -235 398 -232 407 3
9 406 247 420 248 3 1 57 -87 118 -194z m-2178 -227 c40 -70 76 -128 80 -128
3 0 100 54 214 120 114 66 209 119 209 117 16 -21 246 -429 244 -431 -14 -12
-407 -236 -415 -236 -5 0 -64 94 -129 210 -66 115 -123 209 -128 210 -4 0
-102 -55 -218 -121 -115 -67 -212 -119 -215 -116 -3 3 -59 98 -124 211 l-118
205 216 125 216 125 48 -82 c26 -45 80 -139 120 -209z m-2279 -51 c64 -112
117 -208 117 -213 0 -5 -74 -51 -163 -102 -89 -51 -185 -106 -212 -122 l-51
-29 -122 212 c-86 149 -118 214 -109 219 140 84 405 236 412 237 6 1 63 -91
128 -202z m5832 -102 c65 -113 121 -205 126 -205 5 0 98 52 208 115 109 63
203 115 208 115 9 0 256 -420 251 -426 -8 -7 -421 -244 -423 -242 -1 2 -54 95
-119 208 -65 113 -121 209 -125 213 -4 4 -103 -47 -220 -114 -127 -73 -215
-119 -221 -113 -11 12 -228 388 -232 403 -3 11 395 249 418 250 6 1 64 -91
129 -204z m-5180 -47 c54 -95 110 -192 122 -214 l23 -42 -211 -122 c-116 -67
-212 -120 -214 -118 -24 29 -246 433 -240 435 6 2 98 55 205 117 107 63 200
115 205 115 6 1 55 -77 110 -171z m2954 -96 c61 -107 111 -197 111 -200 0 -6
-118 -75 -371 -220 l-57 -32 -122 211 c-67 116 -120 212 -118 214 2 2 97 58
213 124 164 94 212 118 221 108 6 -6 62 -99 123 -205z m-2250 -105 c61 -106
117 -202 125 -212 12 -17 24 -11 191 84 97 57 192 112 210 122 l32 19 122
-210 c66 -115 121 -213 121 -218 0 -6 -84 -58 -187 -117 -104 -60 -197 -114
-208 -121 -20 -13 -27 -2 -145 201 -68 118 -126 215 -130 215 -3 0 -99 -54
-214 -120 -114 -66 -211 -120 -214 -120 -4 1 -60 93 -125 207 -79 138 -114
210 -108 216 8 8 407 244 418 247 1 0 51 -87 112 -193z m-8059 -42 c62 -107
118 -201 124 -209 9 -13 41 2 211 101 110 63 205 117 211 120 6 2 66 -91 133
-208 101 -174 120 -214 109 -224 -33 -31 -402 -235 -410 -227 -5 5 -62 101
-127 213 -64 112 -120 204 -122 204 -3 0 -101 -55 -218 -123 -117 -68 -214
-122 -215 -120 -28 41 -236 413 -234 419 3 9 407 247 420 248 3 1 57 -87 118
-194z m10953 9 c54 -93 109 -188 122 -211 l25 -41 -211 -122 c-116 -67 -214
-118 -218 -114 -4 5 -61 101 -125 213 -71 124 -113 208 -108 213 19 19 397
236 407 234 6 -1 54 -79 108 -172z m2952 -92 c65 -112 116 -204 114 -206 -26
-24 -425 -244 -431 -238 -11 11 -238 403 -238 411 0 11 425 250 431 243 4 -4
60 -98 124 -210z m-8063 -35 c116 -201 121 -207 142 -194 104 67 399 228 405
221 28 -29 242 -417 235 -424 -5 -5 -99 -61 -209 -124 -179 -104 -201 -114
-212 -99 -7 9 -63 103 -124 210 -61 106 -114 195 -117 197 -4 2 -99 -50 -212
-115 -113 -65 -210 -119 -216 -119 -17 0 -249 409 -238 420 19 18 409 239 418
237 5 -2 63 -96 128 -210z m-8037 -80 c50 -86 93 -157 96 -157 4 0 100 54 215
120 114 66 208 119 209 118 15 -19 246 -430 244 -432 -13 -12 -408 -236 -416
-236 -5 0 -63 94 -128 210 -66 115 -123 209 -128 210 -4 0 -102 -55 -218 -121
-115 -67 -212 -119 -215 -116 -3 3 -59 98 -124 211 l-118 205 141 82 c78 45
176 102 217 125 l74 44 31 -53 c16 -30 71 -124 120 -210z m13864 -15 c64 -111
121 -201 126 -202 6 0 102 54 215 119 113 66 205 118 206 117 10 -12 234 -406
239 -417 5 -13 -33 -39 -172 -119 -98 -56 -192 -111 -209 -121 l-32 -19 -123
212 c-67 117 -124 215 -125 217 -2 2 -98 -51 -213 -118 -116 -66 -214 -121
-219 -121 -4 0 -61 93 -126 206 -80 139 -115 209 -109 215 20 20 408 239 417
236 6 -2 62 -94 125 -205z m-2234 -127 c65 -113 120 -207 124 -209 3 -2 100
50 214 116 114 66 210 119 212 117 15 -16 244 -423 240 -429 -10 -16 -419
-244 -422 -235 -12 32 -244 420 -250 418 -4 -1 -102 -56 -217 -123 -115 -66
-210 -119 -211 -118 -20 24 -235 412 -233 419 3 9 405 247 419 249 3 0 59 -92
124 -205z m-8061 -40 c65 -113 122 -205 127 -205 5 0 98 52 207 115 109 63
203 115 208 115 9 0 258 -420 252 -425 -8 -8 -421 -245 -423 -243 -1 2 -54 95
-119 208 -65 113 -121 209 -125 213 -4 4 -103 -47 -220 -114 -125 -72 -215
-118 -221 -113 -11 12 -228 388 -232 403 -3 10 395 250 418 251 6 0 63 -92
128 -205z m5832 -100 c65 -113 121 -205 124 -205 3 0 99 54 213 119 205 119
207 120 221 98 40 -63 237 -409 234 -412 -16 -13 -409 -235 -416 -235 -6 0
-60 87 -120 193 -61 105 -117 201 -125 211 -13 18 -24 13 -226 -104 -117 -67
-216 -118 -221 -114 -12 14 -229 392 -232 404 -3 12 411 260 423 254 3 -2 59
-96 125 -209z m-8057 -44 c61 -106 111 -196 111 -200 0 -3 -71 -46 -157 -96
-87 -49 -183 -105 -214 -123 l-57 -32 -122 211 c-67 116 -120 212 -118 214 2
2 97 58 213 124 164 95 212 118 221 108 6 -6 62 -99 123 -206z m13881 -42 c63
-111 115 -208 115 -215 0 -10 -402 -254 -419 -254 -4 0 -241 410 -241 418 0 6
415 251 425 251 3 0 57 -90 120 -200z m-8057 -46 c96 -168 116 -208 105 -218
-7 -7 -89 -56 -183 -110 -93 -53 -184 -106 -201 -116 l-31 -19 -122 211 c-67
116 -120 213 -118 216 12 11 413 242 422 242 6 0 63 -92 128 -206z m-8074 -16
c61 -106 117 -202 124 -212 13 -16 28 -10 218 100 112 65 207 119 210 121 7 4
249 -410 249 -425 0 -13 -407 -244 -418 -237 -5 3 -62 98 -127 211 -65 113
-122 205 -125 205 -4 0 -100 -54 -214 -120 -114 -66 -210 -120 -214 -120 -7 1
-235 395 -239 414 -2 8 392 245 424 255 1 1 51 -86 112 -192z m2909 -58 c62
-107 117 -202 122 -211 8 -14 -22 -35 -201 -138 -116 -67 -214 -118 -218 -113
-4 4 -60 100 -125 212 -81 140 -114 207 -107 214 19 19 396 235 406 233 6 -2
61 -90 123 -197z m10996 -26 c112 -193 118 -207 101 -219 -10 -8 -106 -64
-213 -125 -162 -94 -196 -109 -206 -98 -29 31 -236 403 -229 409 16 15 408
239 418 240 6 0 64 -93 129 -207z m-8064 -33 c62 -107 116 -199 120 -203 4 -4
90 40 191 99 101 58 196 112 211 120 l27 14 120 -210 c67 -115 121 -213 121
-217 0 -5 -93 -62 -206 -127 -190 -110 -208 -118 -220 -102 -7 10 -63 105
-125 212 -61 107 -115 194 -120 194 -5 0 -102 -54 -216 -120 -117 -67 -211
-116 -216 -111 -11 11 -237 402 -237 410 0 11 425 250 431 243 4 -4 57 -95
119 -202z m10964 -9 c66 -115 120 -213 120 -217 1 -8 -399 -244 -413 -244 -8
0 -246 409 -246 423 0 7 402 246 415 246 3 0 59 -94 124 -208z m-8060 -40 c66
-115 118 -213 116 -217 -5 -10 -411 -246 -416 -242 -7 8 -244 422 -244 427 0
8 402 240 415 240 6 0 64 -94 129 -208z m2930 -56 c66 -115 116 -210 111 -212
-6 -2 -102 -57 -215 -123 -198 -114 -206 -118 -220 -99 -8 11 -64 105 -124
210 -87 152 -107 193 -95 200 152 92 406 237 413 235 5 -1 64 -96 130 -211z
m-8065 -32 c64 -111 120 -203 125 -203 5 0 99 52 209 115 110 64 205 114 211
112 16 -7 250 -417 242 -424 -4 -4 -98 -60 -209 -124 -156 -91 -204 -114 -212
-105 -5 7 -62 104 -125 214 -83 146 -119 200 -130 196 -8 -3 -103 -57 -212
-120 -109 -62 -202 -114 -206 -114 -4 0 -61 93 -126 206 -81 141 -115 209
-108 216 21 21 398 236 411 235 8 -1 66 -93 130 -204z m10969 -18 c84 -144
117 -212 109 -217 -7 -3 -102 -58 -211 -122 l-200 -115 -31 52 c-151 253 -218
380 -204 388 211 125 405 234 410 230 4 -3 61 -100 127 -216z m-5134 -88 c60
-103 112 -189 117 -192 5 -3 93 43 196 103 104 60 197 114 209 120 19 10 29
-4 144 -204 68 -118 121 -216 119 -218 -2 -2 -87 -52 -189 -111 -102 -59 -195
-113 -207 -121 -21 -13 -25 -7 -145 201 -68 118 -126 215 -129 215 -4 0 -102
-55 -218 -122 -116 -66 -213 -119 -215 -117 -11 13 -236 408 -236 415 0 5 96
64 212 131 188 107 214 119 224 105 6 -10 59 -101 118 -205z m-8070 -22 c66
-113 122 -207 125 -209 3 -2 100 50 214 116 114 66 210 119 212 117 2 -2 58
-98 125 -214 119 -206 120 -210 100 -225 -54 -40 -404 -233 -407 -225 -12 32
-244 420 -250 418 -5 -1 -102 -56 -217 -122 -115 -67 -210 -120 -211 -119 -1
2 -57 97 -123 212 l-121 210 147 84 c81 47 176 102 212 123 36 22 67 39 70 39
3 0 59 -92 124 -205z m10967 -15 c65 -113 119 -209 119 -215 -1 -15 -411 -248
-420 -238 -14 15 -240 410 -240 419 1 11 401 244 414 240 5 -1 62 -94 127
-206z m2924 -45 c65 -113 121 -208 125 -210 4 -3 101 49 215 115 114 66 210
119 212 116 9 -9 243 -418 243 -424 0 -12 -410 -243 -419 -237 -5 3 -62 97
-127 210 -65 113 -122 205 -127 205 -4 0 -103 -55 -218 -121 -116 -67 -211
-120 -213 -118 -12 14 -236 410 -236 417 0 5 416 252 426 252 1 0 55 -92 119
-205z m-8060 -39 c65 -113 117 -208 115 -213 -1 -4 -97 -63 -213 -130 l-211
-121 -84 146 c-47 81 -102 176 -123 212 -21 35 -37 65 -36 66 11 9 423 244
428 244 4 0 59 -92 124 -204z m-8060 -41 c65 -113 121 -205 124 -205 3 0 99
54 214 120 205 118 207 119 221 97 44 -71 237 -409 234 -412 -16 -12 -410
-235 -416 -235 -5 0 -60 87 -121 194 -62 107 -118 202 -125 212 -12 16 -30 8
-225 -105 -117 -68 -216 -119 -221 -115 -11 13 -229 391 -232 405 -3 11 412
259 423 253 4 -2 59 -96 124 -209z m13892 -60 c65 -113 121 -205 126 -205 5 0
98 52 207 115 110 63 204 115 209 115 14 0 254 -421 244 -430 -4 -4 -99 -59
-211 -123 -201 -115 -202 -116 -216 -94 -7 12 -60 103 -116 202 -57 99 -108
186 -115 193 -9 10 -54 -12 -219 -108 -114 -66 -211 -120 -216 -120 -7 0 -238
392 -243 412 -2 8 402 246 420 247 6 1 65 -91 130 -204z m-8067 -26 c63 -110
116 -206 118 -213 3 -12 -399 -251 -420 -251 -14 0 -247 410 -238 419 10 10
412 245 420 245 3 0 57 -90 120 -200z m2906 -56 c66 -114 119 -211 119 -216 0
-4 -92 -62 -205 -127 -157 -91 -208 -116 -216 -107 -14 14 -235 398 -237 411
-2 9 389 243 409 245 6 1 65 -92 130 -206z m2927 -48 c64 -112 117 -208 117
-212 0 -7 -195 -123 -386 -230 l-40 -23 -122 212 c-67 116 -121 212 -120 213
10 8 424 245 428 245 3 0 58 -92 123 -205z m-8059 -42 c106 -184 117 -208 102
-218 -9 -7 -104 -63 -212 -125 -165 -95 -198 -110 -209 -99 -27 30 -235 403
-228 410 15 14 408 239 418 239 6 0 63 -93 129 -207z m2900 -42 c66 -115 119
-213 119 -218 0 -8 -399 -243 -413 -243 -7 0 -245 410 -245 423 0 7 402 246
415 246 3 0 59 -94 124 -208z m10989 -14 c64 -112 117 -208 117 -213 0 -5 -73
-51 -163 -102 -89 -51 -185 -106 -212 -122 l-51 -29 -122 212 c-86 149 -118
214 -109 219 140 84 405 236 412 237 6 1 63 -91 128 -202z m-8064 -34 c62
-106 114 -199 117 -206 6 -17 -414 -263 -427 -250 -25 25 -237 409 -230 416
20 20 417 244 423 238 3 -3 56 -93 117 -198z m-8055 -48 c66 -115 116 -210
111 -212 -6 -2 -102 -57 -215 -122 -198 -115 -206 -119 -220 -100 -8 11 -64
105 -124 210 -87 152 -107 193 -95 200 152 92 406 237 413 235 5 -1 64 -96
130 -211z m10958 1 c65 -112 119 -209 120 -216 3 -11 -409 -257 -417 -249 -19
20 -243 425 -237 431 10 9 405 238 412 238 3 0 58 -92 122 -204z m-8055 -49
c83 -145 118 -214 110 -219 -7 -3 -102 -58 -211 -121 l-200 -116 -31 52 c-17
29 -73 126 -125 215 -76 132 -91 166 -79 173 227 134 405 235 409 232 2 -2 59
-99 127 -216z m10988 -12 c65 -113 116 -207 114 -209 -20 -21 -424 -245 -430
-239 -22 24 -241 417 -233 420 5 2 101 57 214 122 112 66 207 118 211 116 3
-2 59 -97 124 -210z m-8062 -36 c117 -203 117 -204 96 -219 -12 -8 -109 -65
-216 -127 l-193 -112 -39 67 c-21 37 -75 131 -121 210 -45 79 -80 146 -76 149
17 18 412 242 421 239 6 -1 63 -95 128 -207z m10942 29 c54 -95 110 -192 122
-214 l23 -42 -211 -122 c-116 -67 -212 -120 -214 -118 -24 29 -246 433 -240
435 6 2 98 55 205 117 107 63 200 115 205 115 6 1 55 -77 110 -171z m-8036
-82 l120 -209 -206 -119 c-114 -65 -211 -117 -217 -114 -16 6 -249 416 -242
424 20 19 412 239 418 234 4 -4 61 -101 127 -216z m-8068 -26 c65 -113 119
-209 118 -215 0 -15 -410 -248 -419 -238 -14 14 -240 410 -240 419 1 11 401
244 414 240 5 -1 62 -94 127 -206z m10989 -12 c63 -111 116 -204 118 -208 3
-8 -409 -250 -424 -250 -15 0 -247 411 -237 420 14 15 408 240 418 239 6 0 62
-90 125 -201z m-8065 -33 c65 -113 121 -208 125 -210 4 -2 100 50 215 116 114
66 210 118 212 115 9 -9 243 -418 243 -424 0 -8 -405 -242 -417 -242 -4 1 -62
95 -128 210 -65 116 -123 210 -128 210 -5 0 -104 -55 -219 -121 -115 -67 -210
-120 -212 -118 -11 14 -236 410 -236 417 0 5 416 252 426 252 1 0 55 -92 119
-205z m10975 -28 l119 -207 -92 -54 c-202 -118 -322 -186 -328 -186 -13 0
-251 422 -242 430 25 25 409 238 416 231 4 -4 61 -101 127 -214z m-8068 -28
c65 -112 117 -208 115 -214 -3 -8 -177 -112 -352 -210 l-63 -35 -121 209 c-66
116 -121 214 -121 218 0 11 402 243 415 239 5 -1 63 -94 127 -207z m2918 -34
c62 -107 118 -201 124 -209 9 -13 41 2 211 101 110 63 205 117 211 120 6 2 66
-91 133 -208 101 -174 120 -214 109 -224 -33 -31 -402 -235 -410 -227 -5 5
-62 101 -127 213 -64 112 -120 203 -125 202 -4 0 -102 -56 -218 -123 -115 -66
-211 -120 -212 -118 -29 41 -236 413 -234 420 3 8 406 246 420 247 3 1 57 -87
118 -194z m-8054 -50 c65 -113 122 -205 127 -205 4 0 98 52 207 115 109 63
203 115 208 115 12 0 256 -419 249 -427 -3 -2 -98 -58 -211 -123 -204 -118
-206 -119 -220 -97 -7 12 -60 103 -116 202 -57 99 -108 186 -115 193 -9 10
-54 -12 -219 -108 -114 -66 -212 -120 -216 -120 -7 0 -238 392 -243 412 -2 8
401 246 420 247 6 1 64 -91 129 -204z m10973 -24 c62 -107 110 -199 108 -205
-3 -6 -71 -49 -153 -96 -82 -47 -174 -100 -205 -117 l-56 -33 -119 207 c-66
114 -119 213 -119 220 0 7 92 66 205 131 177 102 206 116 216 103 6 -9 61
-103 123 -210z m2922 -41 c65 -113 122 -204 127 -203 4 1 97 54 207 117 110
64 204 115 208 113 17 -5 249 -419 241 -427 -24 -23 -409 -239 -415 -232 -4 4
-58 95 -119 202 -62 107 -118 200 -124 207 -8 9 -61 -18 -216 -108 -113 -65
-210 -119 -216 -119 -17 0 -249 409 -238 420 19 18 409 239 418 237 5 -2 62
-95 127 -207z m-8019 -112 c40 -70 76 -128 80 -128 4 0 100 54 214 120 114 66
208 119 209 118 15 -19 246 -430 244 -432 -14 -12 -407 -236 -415 -236 -5 0
-64 94 -129 210 -66 115 -123 209 -128 210 -4 0 -102 -55 -218 -121 -115 -67
-212 -119 -215 -116 -3 3 -59 98 -124 211 l-118 205 141 82 c78 45 176 102
217 125 l74 44 48 -83 c26 -45 80 -139 120 -209z m-8109 47 c64 -112 117 -208
117 -212 0 -8 -393 -238 -417 -245 -10 -3 -259 410 -251 417 9 8 424 245 428
245 3 0 58 -92 123 -205z m13892 -65 c87 -152 124 -208 135 -204 8 3 104 57
213 120 110 63 200 114 202 112 7 -9 235 -406 239 -418 4 -11 -50 -47 -195
-130 -110 -63 -206 -116 -212 -118 -7 -1 -66 92 -132 208 -66 115 -124 210
-129 210 -5 0 -104 -54 -219 -121 -162 -93 -212 -118 -218 -108 -39 61 -229
398 -229 406 0 7 403 250 420 252 3 1 59 -93 125 -209z m-8062 -34 c64 -112
117 -207 117 -212 0 -5 -74 -51 -163 -102 -89 -51 -185 -106 -213 -122 l-50
-29 -122 211 c-87 151 -118 214 -109 220 186 111 404 236 412 237 6 1 63 -91
128 -203z m-5158 -85 c65 -115 119 -212 118 -217 -1 -9 -412 -248 -418 -243
-21 22 -243 425 -236 432 10 10 404 237 411 237 3 0 59 -94 125 -209z m10990
-16 c65 -113 122 -205 126 -205 5 0 98 52 208 115 109 63 203 115 208 115 9 0
256 -420 251 -426 -8 -7 -421 -244 -423 -242 -1 2 -54 95 -119 208 -65 113
-121 209 -125 213 -4 4 -103 -47 -220 -114 -127 -73 -215 -119 -221 -113 -11
12 -228 388 -232 403 -3 10 395 249 418 250 6 1 64 -91 129 -204z m-8060 -40
c65 -113 116 -207 114 -209 -2 -3 -98 -59 -214 -126 -182 -105 -211 -119 -221
-105 -38 52 -236 409 -228 412 5 2 101 57 214 122 112 66 207 118 211 116 3
-3 59 -97 124 -210z m2877 -3 c53 -92 108 -188 123 -214 l25 -46 -211 -122
c-116 -67 -212 -120 -214 -118 -24 29 -246 433 -240 435 6 2 98 55 205 117
107 63 200 115 205 115 6 0 54 -75 107 -167z m-8038 -78 c64 -111 116 -206
116 -212 0 -13 -400 -244 -414 -239 -16 7 -250 417 -242 425 20 19 412 239
418 234 3 -4 58 -97 122 -208z m10995 -23 c61 -106 111 -196 111 -200 0 -5
-121 -76 -371 -219 l-57 -32 -122 211 c-67 116 -120 212 -118 214 2 2 97 58
213 124 164 94 212 118 221 108 6 -6 62 -99 123 -206z m-8067 -27 c64 -109
117 -202 117 -206 1 -7 -413 -248 -426 -248 -14 1 -245 412 -236 421 18 18
409 239 418 236 6 -2 63 -93 127 -203z m2915 -70 l111 -194 -56 -33 c-109 -66
-338 -196 -354 -202 -12 -5 -42 40 -138 205 -67 117 -118 216 -113 220 4 5 98
61 208 124 198 115 200 116 215 94 8 -12 65 -108 127 -214z m10976 10 c65
-112 115 -209 112 -213 -3 -5 -89 -58 -192 -117 -104 -59 -197 -113 -209 -121
-20 -13 -26 -4 -143 198 -67 116 -120 213 -117 216 11 12 412 241 421 242 6 0
63 -92 128 -205z m-8074 -17 c61 -106 117 -202 125 -212 12 -17 26 -11 217
100 112 65 207 119 210 121 7 4 249 -410 249 -425 0 -4 -84 -57 -187 -116
-104 -59 -197 -114 -208 -121 -20 -13 -27 -3 -145 201 -68 118 -126 215 -130
215 -3 0 -99 -54 -214 -120 -114 -66 -211 -120 -214 -120 -7 1 -235 396 -239
414 -2 8 392 245 424 255 1 1 51 -86 112 -192z m-8060 -40 c61 -106 117 -201
124 -210 11 -15 33 -4 217 103 113 66 208 120 211 120 4 0 62 -95 129 -211
100 -173 119 -214 108 -224 -7 -7 -100 -62 -207 -124 -156 -90 -197 -109 -206
-99 -7 7 -58 94 -115 193 -56 99 -109 190 -116 202 -14 22 -16 21 -230 -103
-119 -69 -217 -123 -219 -122 -33 50 -235 414 -233 420 3 8 406 246 420 247 3
1 56 -86 117 -192z m10954 7 c54 -93 109 -188 123 -211 l24 -41 -211 -122
c-116 -67 -214 -118 -218 -113 -4 4 -60 100 -125 212 -81 140 -114 207 -107
214 19 19 396 235 406 233 5 -2 54 -79 108 -172z m-8043 -69 c66 -114 119
-212 118 -217 -5 -15 -412 -248 -419 -240 -18 22 -239 416 -237 423 3 9 410
249 415 245 1 -1 57 -96 123 -211z m10990 -15 c62 -107 116 -199 120 -203 4
-4 92 41 196 101 104 60 199 114 211 120 20 11 27 1 142 -197 67 -115 121
-213 121 -217 0 -5 -93 -63 -206 -128 -191 -110 -208 -118 -220 -102 -7 10
-63 105 -125 212 -61 107 -115 194 -120 194 -5 0 -102 -54 -216 -120 -117 -67
-211 -116 -216 -111 -11 11 -237 402 -237 410 0 11 425 250 431 243 4 -4 57
-95 119 -202z m2904 -49 c66 -115 118 -213 116 -217 -5 -10 -411 -246 -416
-242 -7 8 -244 422 -244 427 0 8 401 240 415 240 6 0 64 -93 129 -208z m-5135
-88 c64 -111 120 -203 125 -203 5 0 99 52 209 115 110 64 205 114 211 112 16
-7 250 -417 242 -425 -4 -3 -98 -59 -209 -123 -157 -91 -204 -115 -212 -105
-5 7 -62 104 -125 214 -85 149 -119 200 -130 196 -8 -3 -104 -57 -212 -120
-108 -63 -201 -114 -205 -114 -16 0 -246 411 -236 421 21 21 399 237 412 236
8 -1 66 -93 130 -204z m-8066 -27 c64 -112 117 -208 117 -214 0 -10 -419 -257
-425 -250 -2 2 -57 97 -124 211 -105 183 -118 209 -103 218 54 33 408 237 412
238 3 1 58 -91 123 -203z m13901 -79 c60 -103 112 -189 117 -192 4 -3 102 48
216 114 114 66 208 119 209 118 8 -8 244 -421 244 -426 0 -8 9 -2 -237 -144
l-182 -105 -123 214 c-68 117 -126 214 -129 214 -4 0 -100 -54 -214 -120 -114
-66 -211 -120 -214 -120 -7 0 -241 404 -241 416 0 5 96 64 213 131 187 107
213 119 223 105 6 -10 59 -101 118 -205z m-8070 -22 c66 -113 122 -207 125
-209 3 -2 100 50 214 116 114 66 210 119 212 117 15 -16 244 -423 240 -429
-10 -16 -419 -244 -422 -235 -12 32 -244 420 -250 418 -4 -1 -102 -56 -217
-123 -115 -66 -210 -119 -211 -118 -22 28 -236 411 -233 419 3 9 404 247 418
249 3 0 59 -92 124 -205z m-8060 -40 c65 -113 122 -205 127 -205 5 0 98 52
207 115 109 63 203 115 208 115 9 0 257 -420 252 -426 -2 -1 -97 -56 -212
-123 l-209 -120 -120 207 c-65 114 -122 211 -126 215 -4 4 -103 -47 -220 -114
-126 -73 -215 -119 -221 -113 -11 12 -228 387 -232 402 -3 11 395 250 418 252
6 0 63 -92 128 -205z m13881 -42 c60 -104 114 -198 122 -209 13 -21 7 -26
-203 -147 l-218 -126 -84 147 c-47 81 -102 176 -123 212 -28 46 -35 66 -26 72
6 3 102 59 212 122 110 64 203 116 206 116 4 0 55 -84 114 -187z m-16106 -102
c61 -106 111 -196 111 -200 0 -3 -71 -46 -157 -96 -87 -49 -183 -105 -214
-123 l-57 -32 -122 211 c-67 116 -120 212 -118 214 2 2 97 58 213 124 164 95
212 118 221 108 6 -6 62 -99 123 -206z m13881 -42 c63 -110 116 -206 118 -213
3 -12 -399 -251 -420 -251 -13 0 -247 409 -238 418 8 10 413 246 420 246 3 0
57 -90 120 -200z m2906 -56 c66 -114 119 -211 119 -216 0 -4 -92 -62 -205
-127 -157 -91 -208 -116 -216 -107 -13 14 -235 398 -237 411 -2 9 389 243 409
245 6 1 65 -92 130 -206z m2927 -48 c64 -112 117 -208 117 -212 0 -7 -195
-123 -386 -230 l-40 -23 -122 212 c-67 116 -121 212 -120 213 11 8 424 245
428 245 3 0 58 -92 123 -205z m-19055 -16 c62 -107 117 -201 122 -211 8 -14
-22 -35 -201 -138 -116 -67 -215 -118 -219 -113 -4 4 -60 100 -124 212 -81
140 -114 207 -107 214 19 19 396 235 406 233 6 -2 61 -90 123 -197z m10996
-26 c106 -184 117 -208 102 -218 -9 -7 -104 -63 -212 -125 -165 -95 -198 -110
-209 -99 -27 30 -235 403 -228 410 16 14 408 238 418 239 6 0 63 -93 129 -207z
m2900 -42 c66 -115 119 -213 119 -218 0 -8 -398 -243 -412 -243 -8 0 -246 409
-246 423 0 7 402 246 415 246 3 0 59 -94 124 -208z m2925 -48 c62 -106 114
-199 117 -207 6 -16 -414 -262 -427 -249 -24 24 -238 408 -231 415 21 21 418
245 424 239 3 -3 56 -93 117 -198z m-16120 -80 c64 -111 120 -202 125 -203 5
0 99 52 209 115 110 64 205 114 211 112 16 -7 250 -417 242 -424 -4 -4 -98
-60 -209 -124 -156 -91 -204 -114 -212 -105 -5 7 -62 104 -125 214 -83 146
-119 200 -130 196 -8 -3 -103 -57 -212 -120 -109 -62 -201 -114 -206 -114 -10
0 -234 387 -236 408 -1 17 388 252 413 249 7 -1 66 -93 130 -204z m10968 -16
c83 -145 118 -214 110 -219 -7 -3 -102 -58 -211 -122 l-200 -115 -31 52 c-17
29 -73 126 -125 215 -76 132 -91 166 -79 173 178 106 405 235 409 232 2 -2 59
-99 127 -216z m2925 -47 c65 -112 114 -208 110 -212 -5 -5 -102 -62 -215 -128
l-207 -119 -39 67 c-21 37 -75 131 -121 210 -45 79 -80 146 -76 149 17 18 412
242 421 239 6 -1 63 -94 127 -206z m2907 -54 l120 -209 -206 -119 c-113 -65
-211 -117 -217 -115 -16 7 -249 417 -242 425 20 19 412 239 418 234 4 -4 61
-101 127 -216z m-8068 -26 c65 -113 119 -209 119 -215 -1 -15 -411 -248 -421
-238 -13 14 -239 410 -239 419 1 11 401 244 414 240 5 -1 62 -94 127 -206z
m2924 -45 c65 -113 121 -208 125 -210 4 -3 101 49 215 115 114 66 210 119 212
116 9 -9 243 -418 243 -424 0 -8 -405 -242 -417 -242 -4 1 -62 95 -128 210
-65 116 -123 210 -128 210 -4 0 -103 -55 -218 -121 -116 -67 -211 -120 -213
-118 -12 14 -236 410 -236 417 0 5 416 252 426 252 1 0 55 -92 119 -205z
m2907 -56 c65 -112 117 -208 115 -214 -3 -7 -402 -245 -412 -245 -5 0 -245
419 -245 427 0 11 403 243 415 239 5 -1 63 -94 127 -207z m2918 -34 c62 -107
118 -201 124 -210 9 -12 41 3 211 101 110 64 205 118 211 121 10 4 255 -405
254 -424 -1 -9 -399 -238 -414 -238 -6 0 -64 95 -131 210 -67 116 -125 209
-129 209 -4 -1 -102 -57 -218 -124 -115 -67 -211 -120 -212 -118 -25 36 -236
413 -234 419 3 8 406 247 420 248 3 1 57 -87 118 -194z m-8054 -50 c65 -113
122 -205 127 -205 5 0 98 52 207 115 110 63 204 115 209 115 14 0 254 -421
244 -430 -4 -4 -99 -59 -211 -123 -201 -115 -202 -116 -216 -94 -7 12 -60 103
-116 202 -57 99 -108 186 -115 193 -9 10 -54 -12 -219 -108 -114 -66 -211
-120 -216 -120 -7 0 -238 392 -243 412 -2 8 402 246 420 247 6 1 64 -91 129
-204z m-8066 -27 c63 -110 116 -206 118 -213 3 -11 -400 -250 -420 -250 -15 0
-247 409 -237 419 9 10 411 245 419 245 3 0 57 -90 120 -201z m13942 -150 c40
-70 76 -128 80 -128 3 0 100 54 214 120 114 66 209 119 209 117 17 -21 246
-429 244 -432 -11 -10 -408 -235 -415 -235 -6 0 -64 94 -129 210 -66 115 -123
209 -128 210 -4 0 -97 -52 -208 -116 -110 -64 -207 -117 -215 -118 -7 0 -64
87 -133 206 l-119 207 216 125 217 125 47 -82 c26 -45 80 -139 120 -209z
m-16168 5 c106 -184 117 -208 102 -218 -9 -7 -104 -63 -212 -125 -165 -95
-198 -110 -209 -99 -27 30 -235 403 -228 410 15 14 408 239 418 239 6 0 63
-93 129 -207z m13889 -57 c64 -112 117 -207 117 -212 0 -5 -73 -51 -163 -102
-89 -51 -185 -106 -212 -122 l-51 -29 -122 212 c-86 149 -118 214 -109 219
140 84 405 236 412 237 6 1 63 -91 128 -203z m-13216 -129 c67 -116 121 -212
120 -213 -2 -1 -408 -235 -418 -240 -3 -1 -61 94 -129 213 -99 172 -121 217
-109 224 132 80 405 235 409 232 2 -2 59 -99 127 -216z m10988 -12 c65 -113
116 -207 114 -209 -2 -3 -98 -59 -214 -126 -182 -105 -211 -119 -221 -105 -38
52 -236 409 -228 412 5 2 101 57 214 122 112 66 207 118 211 116 3 -3 59 -97
124 -210z m2880 -7 c54 -95 110 -192 122 -214 l23 -42 -211 -122 c-116 -67
-212 -120 -214 -118 -24 29 -246 433 -240 435 6 2 98 55 205 117 107 63 200
115 205 115 6 1 55 -77 110 -171z m2954 -97 c61 -106 111 -196 111 -200 0 -5
-121 -76 -371 -219 l-57 -32 -122 211 c-67 116 -120 212 -118 214 2 1 97 57
213 124 165 95 212 118 221 108 6 -6 62 -99 123 -206z m-16134 -56 c65 -113
121 -208 125 -210 4 -2 100 50 215 116 114 66 209 118 211 116 9 -8 244 -419
244 -425 0 -8 -405 -242 -417 -242 -4 1 -62 95 -128 210 -65 116 -123 210
-128 210 -5 0 -104 -55 -219 -121 -115 -67 -210 -120 -212 -118 -11 14 -236
409 -236 416 0 7 405 249 421 252 4 1 59 -91 124 -204z m10982 -42 l112 -193
-92 -54 c-202 -118 -322 -186 -328 -186 -13 0 -251 422 -242 430 4 5 98 60
208 124 198 115 200 116 215 94 8 -11 65 -108 127 -215z m2902 -6 c61 -106
117 -202 125 -212 12 -17 24 -11 191 84 97 57 192 112 210 122 l32 19 122
-210 c66 -116 121 -214 121 -219 0 -5 -84 -57 -187 -116 -104 -60 -197 -114
-208 -121 -20 -13 -27 -2 -145 201 -68 118 -126 215 -129 215 -4 0 -100 -54
-214 -120 -115 -66 -212 -120 -215 -120 -4 1 -60 93 -125 207 -78 136 -114
210 -108 216 7 7 406 242 418 246 1 1 51 -86 112 -192z m2918 -73 c66 -115
118 -212 115 -215 -25 -24 -415 -240 -421 -233 -4 5 -61 101 -125 213 -73 128
-113 208 -108 213 19 19 397 236 407 234 5 -2 65 -97 132 -212z m-19031 -19
c65 -113 122 -205 127 -205 4 0 98 52 207 115 109 63 203 115 208 115 12 0
256 -420 249 -427 -3 -2 -98 -58 -211 -123 -146 -84 -208 -115 -214 -107 -5 7
-57 98 -117 202 -59 105 -113 196 -120 203 -9 10 -54 -12 -219 -108 -114 -66
-212 -120 -216 -120 -7 0 -238 392 -243 412 -2 8 401 246 420 247 6 1 64 -91
129 -204z m13896 -68 c116 -201 121 -207 142 -194 104 67 399 228 405 221 28
-29 242 -417 235 -424 -5 -5 -99 -61 -209 -124 -179 -104 -201 -114 -212 -99
-7 9 -63 103 -124 210 -61 106 -114 195 -117 197 -4 2 -99 -50 -212 -115 -113
-65 -210 -119 -216 -119 -17 0 -249 409 -238 420 19 18 409 239 418 237 5 -2
63 -96 128 -210z m5810 -63 c54 -93 107 -185 118 -206 l20 -36 -210 -121
c-115 -67 -213 -121 -218 -121 -4 0 -61 93 -126 206 -80 139 -115 209 -109
215 20 20 408 239 417 236 6 -2 54 -79 108 -173z m-2217 -159 c65 -113 120
-207 124 -209 3 -2 100 50 214 116 114 66 210 119 212 117 15 -16 244 -423
240 -429 -10 -16 -419 -244 -422 -235 -11 32 -244 420 -250 418 -4 -1 -102
-56 -217 -123 -115 -66 -210 -119 -211 -118 -20 24 -235 412 -233 419 3 9 405
247 419 249 3 0 59 -92 124 -205z m2906 -55 c65 -113 119 -208 119 -211 0 -4
-80 -53 -177 -109 -98 -56 -192 -111 -209 -121 l-32 -19 -122 210 c-67 116
-120 215 -118 221 5 14 390 238 407 236 7 -1 67 -94 132 -207z m-19017 -40
c60 -105 107 -192 105 -194 -2 -2 -98 -59 -214 -125 -182 -106 -211 -120 -221
-106 -38 52 -236 409 -228 412 5 2 101 57 214 123 199 116 205 119 220 99 8
-11 64 -105 124 -209z m13882 -45 c65 -113 121 -205 124 -205 3 0 99 54 213
119 205 119 207 120 221 98 40 -63 237 -409 234 -412 -16 -13 -409 -235 -416
-235 -6 0 -60 87 -120 193 -61 105 -117 201 -125 211 -13 18 -24 13 -226 -104
-118 -68 -216 -119 -220 -114 -12 13 -230 391 -233 404 -3 11 412 259 423 254
3 -2 59 -96 125 -209z m-13209 -141 l111 -194 -56 -33 c-109 -66 -338 -196
-354 -202 -12 -5 -42 40 -138 205 -67 117 -118 216 -113 220 4 5 98 61 208
124 198 115 200 116 215 94 8 -12 65 -108 127 -214z m10976 10 c64 -113 115
-209 112 -214 -3 -4 -89 -57 -192 -116 -104 -59 -197 -113 -209 -121 -20 -13
-26 -5 -143 198 -67 116 -120 213 -117 216 11 12 412 241 421 242 6 0 63 -92
128 -205z m5831 -101 c110 -192 117 -207 101 -220 -10 -7 -106 -63 -213 -124
-162 -94 -196 -109 -206 -98 -29 31 -236 403 -229 409 16 15 408 239 418 240
6 0 63 -93 129 -207z m-19054 -18 c66 -114 119 -212 118 -217 -5 -15 -412
-248 -419 -240 -18 22 -239 416 -237 423 3 9 410 249 415 245 1 -1 57 -96 123
-211z m13894 -64 c66 -115 118 -213 116 -217 -5 -10 -411 -246 -416 -242 -8 9
-244 421 -244 426 0 8 401 241 415 241 6 0 64 -94 129 -208z m2930 -56 c66
-115 116 -210 111 -212 -6 -2 -102 -57 -215 -123 -198 -114 -206 -118 -220
-99 -8 11 -64 105 -124 210 -87 152 -107 193 -95 200 268 158 406 237 413 235
5 -1 64 -96 130 -211z m2904 -50 c84 -144 117 -212 109 -217 -7 -3 -102 -58
-211 -122 l-200 -115 -31 52 c-151 253 -218 380 -204 388 304 178 405 235 410
230 4 -3 61 -100 127 -216z m-19035 -9 c64 -112 117 -208 117 -214 0 -10 -419
-256 -425 -250 -2 2 -57 97 -124 211 -105 183 -118 209 -103 218 54 33 408
237 412 238 3 1 58 -91 123 -203z m13901 -79 c60 -103 112 -189 117 -192 4 -3
100 47 211 111 112 64 206 118 209 120 3 2 61 -94 129 -213 100 -173 121 -217
109 -224 -7 -5 -103 -60 -211 -123 l-197 -114 -123 214 c-68 118 -126 214
-130 214 -4 0 -100 -54 -214 -120 -114 -66 -210 -120 -213 -120 -7 0 -241 404
-241 416 0 5 96 64 213 131 187 107 213 119 223 105 6 -10 59 -101 118 -205z
m2897 -37 c65 -113 119 -209 119 -215 -1 -8 -377 -232 -409 -243 -9 -3 -241
389 -247 417 -3 12 54 49 198 133 112 64 207 115 212 114 5 -1 62 -94 127
-206z m-16122 -76 c68 -118 122 -216 120 -218 -16 -12 -412 -236 -417 -236 -7
0 -238 396 -244 418 -2 7 83 62 202 131 113 66 207 120 210 120 3 1 61 -96
129 -215z m16818 -109 c65 -113 122 -205 127 -205 5 0 98 52 207 115 109 63
202 115 207 115 12 0 256 -419 249 -427 -14 -13 -413 -240 -418 -237 -3 2 -59
96 -124 209 -65 113 -121 208 -125 210 -4 2 -100 -50 -214 -115 -115 -66 -212
-120 -216 -120 -7 0 -239 392 -243 412 -2 8 402 246 420 247 6 1 65 -91 130
-204z m-16124 -72 c97 -168 116 -208 105 -218 -7 -7 -94 -59 -193 -115 -99
-57 -189 -109 -201 -117 -20 -13 -26 -5 -143 198 -67 116 -120 214 -117 216
12 12 412 242 421 242 6 0 63 -92 128 -206z m10963 -10 c66 -114 119 -211 119
-216 0 -4 -92 -62 -205 -127 -157 -91 -208 -116 -216 -107 -14 14 -235 398
-237 411 -2 9 389 243 409 245 6 1 65 -92 130 -206z m2927 -48 c64 -112 117
-208 117 -212 0 -7 -196 -124 -386 -230 l-40 -23 -123 211 c-67 117 -120 213
-119 214 10 8 424 245 428 245 3 0 58 -92 123 -205z m-16123 -75 c67 -115 123
-210 125 -210 2 0 86 48 187 106 101 58 195 112 210 120 l27 14 120 -210 c67
-115 121 -213 121 -217 0 -5 -93 -62 -206 -127 -197 -114 -208 -118 -221 -100
-8 10 -64 106 -125 212 -60 105 -114 192 -120 192 -5 0 -102 -54 -216 -120
-161 -93 -209 -117 -218 -107 -14 16 -234 397 -234 405 0 5 418 252 427 252 0
0 56 -94 123 -210z m2880 -7 c52 -92 107 -188 122 -213 l27 -47 -211 -122
c-116 -67 -212 -120 -214 -118 -8 8 -244 420 -244 426 0 7 401 240 415 240 6
0 53 -75 105 -166z m11009 -50 c62 -106 114 -199 117 -207 7 -18 -414 -262
-428 -248 -24 24 -237 407 -229 415 20 20 417 243 423 238 3 -3 56 -93 117
-198z m2908 -56 c110 -190 121 -213 106 -224 -31 -24 -404 -235 -408 -232 -19
20 -243 425 -237 431 9 9 405 238 412 238 3 0 60 -96 127 -213z m2928 -52 c65
-113 116 -208 113 -210 -2 -2 -98 -59 -213 -125 -183 -106 -211 -119 -221
-105 -38 52 -236 409 -228 412 5 2 101 57 214 122 113 66 208 117 211 115 3
-2 59 -96 124 -209z m-5156 -89 l120 -209 -206 -119 c-113 -65 -211 -117 -217
-115 -16 7 -250 417 -242 424 20 20 412 240 418 235 3 -4 61 -101 127 -216z
m2921 -39 c63 -111 115 -205 115 -210 0 -9 -404 -246 -420 -247 -15 0 -248
411 -238 420 14 15 408 240 418 239 6 0 62 -91 125 -202z m2917 -74 c111 -192
112 -193 90 -207 -51 -32 -373 -215 -388 -221 -13 -5 -43 39 -139 206 -67 116
-118 215 -113 219 4 5 98 60 208 124 198 115 200 116 215 94 8 -11 65 -108
127 -215z m-19042 2 c65 -113 121 -207 124 -209 3 -2 98 50 209 115 112 66
207 119 211 119 9 0 246 -408 246 -423 0 -4 -92 -61 -205 -127 -157 -91 -208
-116 -216 -107 -6 7 -62 100 -124 207 -61 107 -115 198 -118 202 -4 4 -104
-49 -222 -117 -188 -109 -216 -122 -224 -107 -5 9 -60 105 -122 212 -62 107
-112 195 -111 196 7 7 423 244 428 244 4 0 60 -92 124 -205z m13885 -50 c62
-107 118 -201 124 -210 9 -12 41 3 211 101 110 64 205 118 211 121 6 2 66 -91
133 -208 101 -174 120 -214 109 -224 -33 -32 -402 -235 -410 -227 -5 5 -62
101 -127 213 -64 112 -120 203 -125 202 -4 0 -102 -56 -218 -123 -115 -66
-211 -120 -212 -118 -29 41 -236 413 -234 420 3 8 406 246 420 247 3 1 57 -87
118 -194z m2910 -60 c66 -115 119 -213 117 -219 -3 -6 -71 -49 -153 -96 -82
-47 -174 -100 -205 -117 l-56 -33 -122 212 c-67 116 -120 215 -119 219 3 8
410 248 415 245 1 -1 57 -96 123 -211z m695 -185 c87 -151 124 -208 135 -204
8 3 104 57 213 120 110 63 200 114 202 112 7 -9 235 -406 239 -418 4 -11 -50
-47 -195 -130 -110 -63 -206 -116 -212 -118 -7 -1 -66 92 -132 208 -66 115
-124 210 -129 210 -5 0 -103 -54 -218 -121 -115 -66 -211 -119 -213 -117 -2 2
-57 96 -123 211 l-120 207 91 54 c51 29 146 85 212 124 66 39 122 71 125 71 3
1 59 -93 125 -209z m-16126 -67 c62 -106 114 -199 117 -206 7 -18 -414 -263
-428 -249 -25 25 -236 408 -229 415 20 20 417 244 423 238 3 -3 56 -93 117
-198z m13895 -68 c65 -113 122 -205 127 -205 5 0 98 52 208 115 109 63 202
115 207 115 9 0 257 -420 252 -426 -8 -7 -421 -244 -423 -242 -1 2 -54 95
-119 208 -65 113 -121 209 -125 213 -4 4 -103 -47 -220 -114 -127 -74 -215
-119 -221 -113 -11 12 -228 387 -232 402 -3 11 395 250 418 251 6 1 63 -91
128 -204z m-16121 -76 c117 -203 117 -204 96 -219 -12 -8 -109 -65 -216 -127
l-193 -112 -33 57 c-152 261 -208 364 -202 370 17 17 411 241 420 238 5 -1 63
-94 128 -207z m2901 -45 c64 -111 116 -206 116 -212 0 -13 -400 -244 -414
-239 -16 7 -250 417 -242 425 20 19 412 239 418 234 3 -4 58 -97 122 -208z
m10995 -23 c61 -106 111 -196 111 -200 0 -5 -121 -76 -371 -219 l-57 -32 -122
211 c-67 116 -120 212 -118 214 2 2 97 58 213 124 164 94 212 118 221 108 6
-6 62 -99 123 -206z m5824 -87 c64 -113 115 -209 112 -214 -3 -4 -89 -57 -192
-116 -104 -59 -197 -113 -209 -121 -20 -13 -26 -5 -143 198 -67 116 -120 213
-117 216 11 12 412 241 421 242 6 0 63 -92 128 -205z m-19051 -24 c65 -113
117 -209 115 -215 -3 -8 -159 -102 -353 -211 l-62 -34 -121 209 c-66 116 -121
214 -121 218 0 11 402 243 414 240 6 -2 63 -95 128 -207z m13886 -51 c62 -107
117 -201 122 -211 8 -14 -22 -35 -201 -138 -116 -67 -214 -118 -218 -114 -4 5
-60 101 -125 213 -74 128 -114 207 -108 213 19 19 397 236 407 234 6 -1 61
-90 123 -197z m2932 -59 c62 -107 116 -199 120 -203 4 -4 92 41 196 101 104
60 199 114 211 120 20 11 27 1 142 -197 67 -116 121 -214 121 -218 0 -5 -93
-62 -206 -127 -197 -114 -207 -119 -221 -100 -8 10 -64 106 -125 212 -60 105
-114 192 -119 192 -5 0 -102 -54 -216 -120 -120 -69 -211 -116 -216 -111 -11
11 -237 402 -237 410 0 11 425 250 431 243 4 -4 57 -95 119 -202z m-16095
-123 c50 -86 93 -157 96 -157 4 0 100 54 215 120 114 66 208 119 209 118 20
-29 246 -430 244 -432 -13 -12 -408 -236 -416 -236 -5 0 -62 92 -127 205 -65
113 -122 207 -127 210 -4 3 -103 -49 -219 -116 -116 -67 -215 -118 -219 -113
-4 5 -60 100 -124 211 l-116 202 142 82 c78 45 176 102 217 125 l74 44 31 -53
c16 -30 71 -124 120 -210z m13847 17 c54 -93 107 -185 118 -206 l20 -36 -210
-121 c-115 -67 -213 -121 -218 -121 -4 0 -61 93 -126 206 -80 139 -115 209
-109 215 20 20 408 239 417 236 6 -2 54 -79 108 -173z m689 -214 c65 -113 119
-208 119 -212 0 -6 -395 -237 -412 -241 -11 -3 -248 405 -245 421 2 16 386
241 406 239 7 -1 67 -94 132 -207z m2925 -46 c65 -114 118 -209 116 -213 -2
-3 -99 -61 -215 -128 l-211 -122 -84 147 c-47 81 -102 176 -123 212 -28 46
-35 66 -26 71 6 4 102 59 212 123 110 64 203 116 206 116 3 0 60 -93 125 -206z
m-19066 4 c58 -100 113 -196 122 -214 l17 -32 -210 -121 c-116 -67 -212 -121
-214 -119 -22 26 -246 433 -240 435 6 2 98 55 205 118 107 62 200 114 205 114
6 1 57 -81 115 -181z m2949 -86 c61 -107 111 -197 111 -200 0 -4 -71 -47 -157
-97 -87 -49 -183 -105 -214 -123 l-57 -32 -122 211 c-67 115 -121 212 -119
214 2 2 98 58 214 124 163 94 212 118 221 108 6 -6 61 -99 123 -205z m13881
-44 c63 -111 115 -208 115 -215 0 -16 -415 -257 -425 -246 -11 13 -231 396
-233 406 -2 8 407 255 423 256 3 0 57 -90 120 -201z m2909 -60 c67 -116 118
-214 114 -218 -4 -4 -98 -60 -208 -123 -120 -70 -203 -113 -209 -107 -24 24
-243 416 -236 423 10 11 403 237 411 237 3 0 61 -95 128 -212z m-19041 0 c61
-106 117 -201 125 -212 13 -18 24 -13 215 97 110 64 205 118 211 119 9 3 251
-402 251 -421 0 -4 -94 -62 -209 -128 l-208 -120 -124 213 c-67 118 -126 214
-129 214 -4 0 -100 -54 -214 -120 -114 -66 -210 -120 -214 -120 -8 1 -236 394
-239 413 -2 8 381 240 423 256 1 1 52 -86 112 -191z m2910 -59 c62 -107 117
-202 122 -211 8 -14 -22 -35 -201 -138 -116 -67 -214 -118 -219 -113 -4 4 -60
100 -124 212 -81 140 -114 207 -107 214 19 19 396 235 406 233 6 -2 61 -90
123 -197z m10996 -26 c110 -192 117 -207 101 -220 -10 -7 -106 -63 -213 -124
-163 -94 -196 -109 -207 -98 -27 30 -235 403 -228 410 16 14 408 238 418 239
6 0 63 -93 129 -207z m-8064 -33 c67 -115 123 -210 125 -210 2 0 86 48 187
106 101 58 195 112 210 120 l27 14 120 -210 c67 -115 121 -213 121 -217 0 -5
-93 -62 -206 -127 -197 -114 -208 -118 -221 -100 -8 10 -64 106 -125 212 -60
105 -114 192 -119 192 -5 0 -102 -54 -216 -120 -161 -93 -210 -117 -219 -107
-14 16 -234 397 -234 405 0 5 416 251 427 252 0 0 56 -94 123 -210z m10964 -9
c66 -115 120 -213 120 -217 1 -8 -399 -244 -413 -244 -8 0 -246 409 -246 423
0 7 402 246 415 246 3 0 59 -94 124 -208z m-13195 -128 c64 -112 120 -203 125
-203 5 0 99 52 209 115 110 64 205 114 211 112 16 -7 250 -417 242 -425 -4 -3
-98 -59 -209 -123 -157 -91 -204 -115 -212 -105 -5 7 -62 104 -125 214 -83
145 -119 200 -130 196 -8 -3 -103 -57 -212 -120 -109 -62 -202 -114 -206 -114
-10 0 -234 387 -236 408 -1 17 388 252 413 249 8 -1 66 -93 130 -204z m10968
-16 c83 -145 118 -214 110 -219 -7 -3 -102 -58 -211 -122 l-200 -115 -31 52
c-17 29 -73 126 -125 215 -76 132 -91 166 -79 173 178 106 405 235 409 232 2
-2 59 -99 127 -216z m2925 -47 c65 -112 114 -208 110 -212 -5 -5 -102 -62
-215 -128 l-207 -119 -39 67 c-21 37 -75 131 -121 210 -45 79 -80 146 -76 149
17 18 412 242 421 239 6 -1 63 -94 127 -206z m-16128 -65 c65 -113 121 -207
124 -209 4 -2 101 50 215 116 114 66 210 119 212 117 14 -15 243 -424 240
-429 -6 -10 -415 -243 -419 -239 -2 2 -58 100 -126 217 l-122 212 -31 -19
c-106 -63 -400 -231 -402 -229 -2 2 -57 97 -123 212 l-121 209 212 123 c117
68 214 124 217 124 3 0 59 -92 124 -205z m13891 -60 c65 -113 121 -208 125
-210 4 -3 101 49 215 115 114 66 210 119 212 116 9 -9 243 -418 243 -424 0 -8
-405 -242 -417 -242 -4 1 -62 95 -128 210 -65 116 -123 210 -128 210 -4 0
-102 -55 -218 -121 -115 -67 -211 -120 -213 -118 -11 14 -236 410 -236 416 0
6 416 253 426 253 1 0 55 -92 119 -205z m-8060 -40 c65 -113 121 -207 124
-209 3 -2 98 50 210 116 112 65 207 118 211 118 8 0 245 -409 245 -423 0 -5
-92 -62 -205 -127 -157 -91 -208 -116 -216 -107 -6 7 -62 100 -124 207 -61
107 -115 198 -118 202 -4 4 -104 -49 -222 -117 -188 -109 -216 -122 -224 -107
-5 9 -60 105 -122 212 -77 133 -109 197 -101 202 7 3 102 59 212 122 110 64
203 116 206 116 4 0 60 -92 124 -205z m10968 -18 c66 -113 116 -210 113 -215
-4 -7 -377 -227 -407 -240 -7 -3 -249 411 -249 425 0 11 403 243 415 239 5 -1
63 -95 128 -209z m-5137 -82 c65 -113 122 -205 127 -205 5 0 98 52 207 115
110 63 204 115 209 115 14 0 254 -421 244 -430 -4 -4 -99 -59 -211 -123 -201
-115 -202 -116 -216 -94 -7 12 -60 103 -116 202 -57 99 -108 186 -114 192 -9
10 -57 -13 -220 -107 -114 -66 -212 -120 -216 -120 -7 0 -238 392 -243 412 -2
8 401 246 420 247 6 1 64 -91 129 -204z m-8066 -27 c63 -110 116 -206 118
-213 3 -11 -400 -250 -420 -250 -15 0 -247 409 -237 419 9 10 411 245 419 245
3 0 57 -90 120 -201z m13942 -150 c40 -70 76 -128 80 -128 3 0 100 54 214 120
114 66 209 119 209 117 17 -21 246 -429 244 -432 -11 -10 -408 -235 -415 -235
-6 0 -64 94 -129 210 -66 115 -123 209 -128 210 -4 0 -97 -52 -208 -116 -110
-64 -207 -117 -215 -118 -7 0 -64 87 -133 206 l-119 207 216 125 217 125 47
-82 c26 -45 80 -139 120 -209z m-16168 5 c106 -184 117 -208 102 -219 -9 -6
-104 -62 -212 -124 -165 -95 -198 -110 -209 -99 -27 30 -235 403 -228 410 15
14 408 239 418 239 6 0 63 -93 129 -207z m2899 -41 c65 -114 119 -211 119
-217 1 -9 -396 -245 -412 -245 -8 0 -245 409 -245 423 0 7 403 247 415 246 3
0 58 -93 123 -207z m10990 -16 c64 -112 117 -207 117 -212 0 -5 -73 -51 -163
-102 -89 -51 -185 -106 -213 -122 l-50 -29 -122 211 c-87 151 -118 214 -109
220 141 85 405 236 412 237 6 1 63 -91 128 -203z m-16120 -81 c67 -115 117
-210 112 -212 -6 -2 -102 -57 -215 -122 -198 -115 -206 -119 -220 -100 -8 11
-64 105 -124 210 -88 154 -107 193 -95 200 152 92 406 237 413 235 5 -1 63
-96 129 -211z m2904 -48 c83 -144 118 -214 110 -218 -7 -4 -102 -59 -211 -123
-179 -103 -201 -113 -211 -98 -6 9 -63 106 -125 216 -91 159 -111 200 -99 207
226 134 405 235 409 232 2 -2 59 -99 127 -216z m10988 -12 c65 -113 116 -207
114 -209 -2 -2 -98 -59 -214 -126 -183 -106 -211 -119 -221 -106 -38 53 -236
410 -228 413 5 2 101 57 214 122 112 66 207 118 211 116 3 -2 59 -97 124 -210z
m-8062 -36 c117 -203 117 -204 96 -219 -12 -8 -109 -65 -215 -127 l-194 -112
-38 67 c-22 37 -76 131 -122 210 -45 79 -80 146 -76 149 17 18 412 242 421
239 5 -1 63 -94 128 -207z m10939 33 c53 -92 108 -188 123 -214 l25 -46 -211
-122 c-116 -67 -212 -120 -214 -118 -23 28 -246 433 -240 435 6 2 98 55 205
117 107 63 200 115 205 115 6 0 54 -75 107 -167z m-16101 -112 c65 -113 119
-209 119 -215 -1 -15 -411 -248 -421 -238 -13 14 -239 410 -239 419 1 11 401
244 414 240 5 -1 62 -94 127 -206z m2924 -45 c65 -113 121 -208 125 -210 4 -2
100 50 215 116 114 66 209 118 211 116 8 -8 244 -420 244 -426 0 -7 -405 -241
-417 -241 -4 1 -62 95 -128 210 -65 116 -123 210 -128 210 -4 0 -103 -55 -218
-121 -116 -67 -211 -120 -213 -118 -12 14 -236 410 -236 416 0 6 416 253 426
253 1 0 54 -92 119 -205z m10982 -42 c111 -191 112 -193 90 -207 -51 -32 -373
-215 -388 -221 -13 -5 -42 38 -139 205 -67 117 -118 216 -113 220 4 5 98 60
208 124 198 115 200 116 215 94 8 -12 65 -108 127 -215z m-8075 -14 c65 -112
117 -208 115 -214 -3 -8 -177 -112 -352 -210 l-63 -35 -121 209 c-66 116 -121
214 -121 218 0 11 402 243 415 239 5 -1 63 -94 127 -207z m10977 8 c61 -106
117 -202 125 -212 12 -17 24 -11 191 84 97 57 192 112 210 122 l32 19 122
-210 c66 -116 121 -214 121 -219 0 -5 -84 -57 -187 -116 -104 -60 -197 -114
-208 -121 -20 -13 -27 -3 -145 201 -68 118 -126 215 -129 215 -4 0 -100 -54
-214 -120 -115 -66 -212 -120 -215 -120 -4 1 -60 93 -125 207 -78 136 -114
210 -108 216 7 7 406 242 418 246 1 1 51 -86 112 -192z m-16113 -92 c65 -113
122 -205 127 -205 4 0 98 52 207 115 109 63 203 115 208 115 12 0 256 -420
249 -427 -3 -2 -98 -58 -211 -123 -146 -84 -208 -115 -214 -107 -5 7 -57 98
-117 202 -59 105 -113 196 -120 203 -9 10 -54 -12 -219 -108 -114 -66 -212
-120 -216 -120 -7 0 -238 392 -243 412 -2 8 401 246 420 247 6 1 64 -91 129
-204z m13894 -65 l122 -210 32 19 c135 82 370 214 382 215 19 1 260 -412 248
-424 -5 -5 -99 -61 -209 -124 -180 -105 -201 -114 -212 -99 -7 9 -63 103 -124
210 -61 106 -114 195 -117 197 -4 2 -99 -50 -212 -115 -113 -65 -210 -119
-216 -119 -13 0 -239 387 -239 409 0 11 397 250 417 251 3 0 61 -95 128 -210z
m-2235 -130 c87 -152 124 -208 135 -204 8 3 104 57 213 120 110 63 200 114
202 112 8 -10 235 -406 239 -418 4 -11 -47 -45 -195 -130 -110 -63 -206 -116
-212 -118 -7 -1 -66 92 -132 208 -66 115 -124 210 -129 210 -5 0 -104 -54
-219 -121 -115 -66 -210 -119 -212 -117 -2 2 -57 96 -123 211 l-120 207 91 54
c51 29 146 85 212 124 66 39 122 71 125 71 3 1 59 -93 125 -209z m-8062 -34
c64 -112 117 -207 117 -212 0 -5 -74 -51 -163 -102 -89 -51 -185 -106 -213
-122 l-50 -29 -122 211 c-87 151 -118 214 -109 220 186 111 404 236 412 237 6
1 63 -91 128 -203z m-5158 -85 c65 -115 119 -212 118 -217 -1 -9 -412 -248
-418 -243 -21 22 -243 425 -236 432 10 10 404 237 411 237 3 0 59 -94 125
-209z m2939 -71 c60 -105 107 -192 105 -194 -2 -3 -98 -59 -214 -126 -182
-105 -211 -119 -221 -105 -38 52 -236 409 -228 412 5 2 101 57 214 123 199
115 205 118 220 99 8 -11 64 -105 124 -209z m2876 -2 c58 -100 113 -196 122
-214 l18 -32 -211 -122 c-116 -67 -212 -120 -214 -118 -22 26 -246 433 -240
435 6 2 98 55 205 117 107 63 200 115 205 115 6 1 57 -81 115 -181z m11006
-43 c65 -113 121 -205 124 -205 4 0 99 53 211 119 150 87 207 116 215 107 14
-15 246 -417 242 -421 -16 -13 -409 -235 -416 -235 -5 0 -60 87 -121 194 -62
107 -118 202 -125 211 -12 16 -31 7 -225 -105 -118 -68 -216 -119 -221 -114
-11 13 -229 391 -232 405 -3 10 397 249 418 249 6 0 65 -92 130 -205z m-16123
-74 c64 -112 117 -205 117 -206 0 -5 -418 -245 -427 -245 -14 0 -245 412 -236
421 18 18 409 239 418 236 6 -2 63 -95 128 -206z m2914 -67 l111 -194 -56 -33
c-109 -66 -338 -196 -354 -202 -12 -5 -42 40 -138 205 -67 117 -118 216 -113
220 4 5 98 61 208 124 198 115 200 116 215 94 8 -12 65 -108 127 -214z m10976
10 c64 -113 115 -209 112 -214 -3 -4 -89 -57 -192 -116 -104 -59 -197 -113
-209 -121 -20 -13 -26 -5 -143 198 -67 116 -120 213 -117 216 11 12 412 241
421 242 6 0 63 -92 128 -205z m-8074 -18 c62 -107 118 -202 125 -212 12 -16
27 -9 191 85 97 57 192 112 210 122 l32 19 122 -210 c66 -116 121 -214 121
-219 0 -4 -84 -57 -187 -116 -104 -59 -197 -114 -208 -121 -20 -13 -27 -3
-145 201 -68 118 -126 215 -130 215 -3 0 -99 -54 -214 -120 -114 -66 -211
-120 -214 -120 -4 1 -60 93 -125 207 -81 141 -115 209 -108 216 7 7 403 241
417 247 1 0 52 -87 113 -194z m-5150 -100 c67 -115 120 -213 119 -218 -3 -7
-287 -177 -399 -238 -14 -8 -37 27 -138 201 -67 116 -121 215 -119 220 3 7
410 249 415 245 0 0 56 -95 122 -210z m2932 -56 c65 -113 122 -204 126 -203 4
1 98 54 208 117 110 64 203 116 207 116 13 0 250 -422 242 -430 -5 -5 -99 -61
-209 -124 -175 -101 -201 -114 -212 -100 -6 9 -62 103 -124 210 -61 107 -115
196 -118 198 -3 2 -98 -49 -211 -115 -113 -65 -210 -119 -216 -119 -13 0 -239
387 -239 409 0 13 403 253 418 248 5 -1 62 -95 128 -207z m10963 -9 c66 -115
118 -213 116 -218 -5 -10 -411 -245 -416 -240 -8 8 -244 420 -244 426 0 7 401
240 415 240 6 0 64 -94 129 -208z m2930 -56 c66 -115 116 -210 111 -212 -6 -2
-102 -57 -215 -123 -199 -115 -205 -119 -220 -99 -8 11 -64 105 -124 210 -87
152 -107 193 -95 200 210 125 406 236 413 235 5 -1 64 -96 130 -211z m-16131
-59 c64 -112 117 -208 117 -214 0 -10 -419 -257 -425 -250 -2 2 -57 97 -124
211 -105 183 -118 209 -103 218 54 33 408 237 412 238 3 1 58 -91 123 -203z
m13901 -79 c59 -103 112 -189 117 -192 4 -3 100 47 211 111 112 64 206 118
209 120 3 2 61 -94 129 -213 100 -173 121 -217 109 -224 -7 -5 -103 -60 -211
-123 l-197 -114 -123 214 c-68 118 -126 214 -129 214 -4 0 -100 -54 -214 -120
-114 -66 -211 -120 -214 -120 -7 0 -241 404 -241 416 0 5 96 64 213 131 186
107 213 119 222 105 7 -10 60 -101 119 -205z m2897 -37 c65 -113 119 -209 119
-215 0 -15 -411 -248 -420 -238 -14 14 -240 410 -240 419 1 11 401 243 414
240 5 -1 62 -94 127 -206z m-16122 -76 c68 -118 122 -216 120 -218 -16 -11
-412 -236 -417 -236 -7 0 -238 395 -244 418 -2 7 83 62 202 131 113 66 207
120 210 120 3 1 61 -96 129 -215z m10986 -9 c65 -113 121 -207 124 -209 3 -2
98 50 210 115 112 66 207 119 211 119 13 0 251 -423 243 -430 -21 -20 -408
-238 -414 -234 -4 2 -57 91 -118 197 -61 107 -117 201 -124 210 -11 15 -35 3
-226 -108 l-215 -124 -122 212 c-84 145 -119 214 -111 219 7 3 102 59 212 122
110 64 203 116 206 116 4 0 60 -92 124 -205z m-8060 -40 c65 -113 121 -205
125 -205 3 0 99 54 213 119 205 119 207 120 221 98 38 -60 236 -410 234 -412
-17 -14 -409 -235 -417 -235 -5 0 -59 87 -120 193 -61 106 -117 202 -125 212
-12 17 -27 10 -225 -105 -117 -67 -216 -118 -221 -114 -11 13 -229 392 -232
405 -3 11 412 258 423 253 4 -2 59 -96 124 -209z m-2232 -132 c97 -168 116
-208 105 -218 -7 -7 -89 -56 -183 -110 -93 -53 -184 -106 -201 -116 l-31 -19
-122 211 c-68 116 -120 213 -118 216 12 11 413 242 422 242 6 0 63 -93 128
-206z m13890 -58 c64 -112 117 -208 117 -212 0 -8 -393 -238 -417 -245 -10 -3
-259 411 -251 417 11 8 424 245 428 245 3 0 58 -92 123 -205z m-16123 -75 c61
-107 115 -199 119 -203 5 -4 91 40 192 99 101 58 196 112 211 120 l26 14 121
-210 c67 -115 121 -213 121 -217 0 -5 -93 -62 -206 -127 -197 -114 -208 -118
-221 -100 -8 10 -64 106 -125 212 -61 105 -115 192 -119 192 -5 0 -102 -54
-216 -120 -162 -93 -210 -117 -219 -107 -14 15 -234 397 -234 406 0 11 425
250 431 243 4 -4 57 -95 119 -202z m2904 -49 c66 -115 118 -213 116 -218 -5
-10 -411 -245 -416 -240 -8 8 -244 420 -244 426 0 7 401 240 415 240 6 0 64
-94 129 -208z m10985 -8 c62 -106 114 -199 117 -207 7 -18 -414 -262 -428
-248 -24 24 -237 407 -229 415 20 20 417 243 423 238 3 -3 56 -93 117 -198z
m-8056 -48 c67 -115 117 -210 112 -212 -6 -2 -102 -57 -215 -123 -198 -114
-206 -118 -220 -99 -8 11 -64 105 -124 210 -88 154 -107 193 -95 200 152 92
406 237 413 235 5 -1 63 -96 129 -211z m10964 -8 c109 -189 120 -213 106 -224
-30 -23 -404 -235 -408 -232 -19 20 -243 425 -237 431 9 9 405 238 412 238 3
0 60 -96 127 -213z m-5135 -87 c65 -112 114 -208 110 -212 -5 -5 -102 -62
-215 -128 l-207 -119 -39 67 c-21 37 -75 131 -121 210 -45 79 -80 146 -76 149
17 18 412 242 421 239 6 -1 63 -94 127 -206z m-8047 -63 c55 -97 104 -176 108
-177 5 0 92 49 195 108 103 60 196 114 208 120 19 10 29 -4 144 -204 67 -118
121 -216 119 -218 -2 -2 -87 -52 -189 -111 -102 -59 -195 -113 -207 -121 -21
-13 -25 -7 -145 201 -68 118 -126 215 -130 215 -3 0 -100 -54 -214 -120 -115
-66 -211 -120 -214 -120 -7 0 -240 405 -240 416 0 5 96 64 213 131 l212 122
20 -33 c11 -19 65 -113 120 -209z m10954 9 l120 -209 -206 -119 c-113 -65
-211 -117 -217 -115 -16 7 -250 417 -242 424 20 20 412 240 418 235 3 -4 61
-101 127 -216z m2921 -39 c63 -111 115 -205 115 -210 0 -9 -404 -246 -420
-247 -15 0 -248 411 -238 420 14 15 408 240 418 239 6 0 62 -91 125 -202z
m-16125 -72 c65 -113 121 -207 124 -209 3 -2 98 50 210 116 113 65 208 117
213 116 15 -5 249 -421 241 -429 -15 -13 -414 -241 -417 -238 -1 2 -53 93
-116 201 -62 109 -118 204 -124 213 -9 12 -43 -4 -226 -110 -188 -109 -216
-122 -224 -107 -5 9 -60 105 -122 212 -62 107 -112 195 -111 196 11 9 423 244
428 244 4 0 60 -92 124 -205z m10967 -16 c65 -112 117 -208 115 -214 -3 -7
-402 -245 -412 -245 -5 0 -245 419 -245 427 0 11 403 243 415 239 5 -1 63 -94
127 -207z m2918 -34 c62 -107 118 -201 124 -210 9 -12 41 3 211 101 110 64
205 118 211 121 10 4 255 -405 254 -424 -1 -9 -399 -238 -414 -238 -6 0 -64
95 -131 210 -67 116 -125 209 -129 209 -4 -1 -102 -57 -218 -124 -115 -67
-211 -120 -212 -118 -25 36 -236 413 -234 419 3 8 406 247 420 248 3 1 57 -87
118 -194z m-2195 -198 c50 -86 93 -157 97 -157 3 0 99 54 214 120 l207 119
123 -212 c68 -117 124 -214 124 -217 0 -7 -405 -240 -416 -240 -5 0 -63 92
-128 205 -65 113 -122 207 -126 210 -5 3 -98 -46 -207 -109 -109 -63 -206
-118 -214 -121 -12 -4 -44 44 -137 204 l-121 210 217 125 217 125 30 -53 c16
-29 71 -123 120 -209z m-8092 18 c64 -112 117 -208 117 -212 0 -8 -392 -238
-417 -245 -10 -3 -259 411 -251 417 10 8 424 245 428 245 3 0 58 -92 123 -205z
m-2233 -133 c61 -107 113 -199 116 -206 7 -18 -415 -261 -428 -248 -26 26
-237 407 -229 415 20 20 417 244 423 238 3 -3 56 -93 118 -199z m8720 -124
c58 -100 113 -196 122 -214 l18 -32 -211 -122 c-116 -67 -212 -120 -214 -118
-22 26 -246 433 -240 435 6 2 98 55 205 117 107 63 200 115 205 115 6 1 57
-81 115 -181z m-8054 -50 c64 -111 119 -209 121 -219 4 -12 -44 -44 -198 -133
-111 -64 -207 -115 -213 -113 -16 7 -250 417 -242 424 5 5 405 240 413 242 1
1 54 -90 119 -201z m11003 -37 c61 -106 111 -196 111 -200 0 -5 -121 -76 -371
-219 l-57 -32 -122 211 c-67 116 -120 212 -118 214 2 1 97 57 213 124 163 94
212 118 221 108 6 -6 62 -99 123 -206z m-2250 -105 c62 -107 118 -202 125
-212 12 -16 27 -9 191 85 97 57 192 112 210 122 l32 19 122 -210 c66 -116 121
-214 121 -219 0 -5 -84 -57 -187 -116 -104 -60 -197 -114 -208 -121 -20 -13
-27 -3 -145 201 -68 118 -126 215 -129 215 -4 0 -100 -54 -214 -120 -115 -66
-212 -120 -215 -120 -4 1 -60 93 -125 207 -80 140 -115 209 -108 216 7 7 397
237 417 246 1 1 52 -86 113 -193z m2917 -72 c67 -115 119 -212 115 -215 -23
-24 -414 -240 -420 -233 -5 5 -61 101 -125 213 -76 131 -114 207 -108 213 19
19 397 236 407 234 6 -2 65 -97 131 -212z m676 -149 c54 -94 107 -186 118
-207 l20 -36 -210 -121 c-115 -67 -213 -121 -218 -121 -10 0 -234 387 -236
408 -1 10 67 55 204 134 113 65 209 117 214 115 5 -2 53 -79 108 -172z m-2218
-160 c65 -113 121 -207 124 -209 4 -2 101 50 215 116 114 66 210 119 212 117
16 -17 244 -423 240 -429 -6 -10 -415 -244 -419 -239 -1 2 -58 100 -125 217
l-123 212 -32 -19 c-85 -53 -399 -231 -401 -229 -19 22 -236 411 -233 419 3 9
404 247 418 249 3 0 59 -92 124 -205z m2907 -55 c65 -113 119 -208 119 -212 0
-6 -394 -237 -412 -241 -11 -3 -248 404 -245 421 2 16 386 241 406 239 7 -1
67 -94 132 -207z m-5135 -85 c65 -113 120 -205 124 -205 3 0 99 54 213 119
205 119 207 120 221 98 38 -60 236 -410 234 -412 -17 -14 -409 -235 -417 -235
-5 0 -59 87 -120 193 -61 106 -117 202 -124 212 -13 16 -28 9 -226 -105 -118
-68 -216 -119 -221 -114 -11 13 -229 391 -232 405 -3 10 397 249 418 249 6 0
65 -92 130 -205z m3598 -232 c110 -192 117 -207 101 -220 -10 -7 -106 -63
-213 -124 -163 -94 -196 -109 -207 -98 -27 30 -235 403 -228 410 16 14 408
238 418 239 6 0 63 -93 129 -207z m-2231 -138 c67 -115 117 -210 112 -212 -6
-2 -102 -57 -215 -123 -199 -115 -205 -119 -220 -99 -8 11 -64 105 -124 210
-87 152 -107 193 -95 200 266 157 406 237 413 235 5 -1 63 -96 129 -211z
m2904 -48 c67 -116 121 -212 120 -213 -1 -1 -96 -56 -211 -123 -189 -109 -211
-119 -221 -103 -6 9 -63 106 -125 216 -91 158 -111 200 -99 206 283 166 405
236 409 233 2 -2 59 -99 127 -216z m-2236 -127 c65 -113 119 -209 119 -215 0
-15 -411 -248 -420 -238 -14 14 -240 410 -240 419 1 11 401 243 414 240 5 -1
62 -94 127 -206z m695 -185 c65 -113 123 -205 128 -205 5 0 98 52 207 115 109
63 202 115 207 115 11 0 256 -420 249 -427 -14 -13 -413 -240 -418 -237 -3 2
-59 96 -124 209 -65 113 -121 208 -125 210 -4 2 -100 -50 -214 -115 -115 -66
-212 -120 -216 -120 -7 0 -238 392 -243 412 -2 8 401 246 420 247 6 1 64 -91
129 -204z m-2233 -130 c64 -112 117 -208 117 -212 0 -8 -392 -238 -417 -245
-10 -3 -259 411 -251 417 10 8 424 245 428 245 3 0 58 -92 123 -205z m674
-188 c109 -189 120 -213 106 -224 -31 -23 -404 -235 -408 -232 -19 20 -243
425 -237 431 9 9 405 238 412 238 3 0 60 -96 127 -213z m2928 -52 c65 -113
116 -208 113 -210 -2 -2 -98 -59 -213 -125 -183 -106 -211 -119 -221 -105 -38
52 -236 409 -228 412 5 2 101 57 214 122 113 66 208 117 211 115 3 -2 59 -96
124 -209z m-5156 -89 l120 -209 -206 -119 c-113 -65 -211 -117 -217 -115 -16
7 -250 417 -242 424 20 20 412 240 418 235 3 -4 61 -101 127 -216z m2924 -46
c65 -112 114 -206 110 -210 -15 -14 -410 -240 -419 -240 -15 0 -247 411 -237
420 19 19 409 239 418 237 6 -2 63 -95 128 -207z m2914 -67 c111 -191 112
-193 90 -207 -51 -32 -373 -215 -388 -221 -13 -5 -42 38 -139 205 -67 117
-118 216 -113 220 4 5 98 60 208 124 198 115 200 116 215 94 8 -12 65 -108
127 -215z m-5148 -63 c89 -153 116 -208 108 -216 -16 -14 -418 -246 -421 -242
-24 32 -236 413 -234 419 4 11 410 248 421 246 4 -1 61 -94 126 -207z m2901
-45 c66 -115 119 -213 117 -219 -3 -6 -71 -49 -153 -96 -82 -47 -174 -100
-205 -117 l-56 -33 -122 212 c-67 116 -120 215 -119 219 3 8 410 248 415 244
1 0 57 -95 123 -210z m-2230 -136 c101 -175 119 -214 108 -224 -32 -30 -402
-235 -410 -227 -10 10 -238 403 -241 415 -2 6 399 245 414 247 3 0 61 -95 129
-211z m2925 -49 c87 -152 124 -208 135 -204 8 3 104 57 213 120 110 63 200
114 202 112 8 -10 235 -406 239 -418 4 -11 -47 -45 -195 -130 -110 -63 -206
-116 -212 -118 -7 -1 -66 92 -132 208 -66 115 -124 210 -129 210 -5 0 -103
-54 -218 -121 -115 -66 -211 -119 -213 -117 -2 2 -57 96 -123 211 l-120 207
91 54 c51 29 146 85 212 124 66 39 122 71 125 71 3 1 59 -93 125 -209z m-2231
-135 c65 -113 123 -205 128 -205 5 0 98 52 207 115 109 63 202 115 207 115 9
0 257 -420 252 -426 -9 -8 -421 -244 -423 -242 -1 2 -55 95 -119 208 -65 113
-121 209 -125 213 -4 4 -103 -47 -220 -114 -127 -74 -215 -119 -221 -113 -11
12 -228 387 -232 402 -3 11 395 250 418 251 6 1 63 -91 128 -204z m-2225 -143
c61 -107 111 -197 111 -200 0 -4 -93 -60 -207 -126 -149 -86 -211 -116 -221
-109 -15 9 -247 402 -241 407 2 2 98 58 214 125 164 95 212 118 221 108 6 -6
61 -99 123 -205z m5824 -89 c97 -168 116 -208 105 -218 -7 -7 -89 -56 -183
-110 -93 -54 -184 -106 -201 -116 l-31 -19 -122 211 c-67 116 -120 213 -117
216 11 11 412 241 421 242 6 0 63 -92 128 -206z m-5157 -89 c67 -115 119 -212
115 -215 -23 -24 -414 -240 -420 -233 -5 5 -61 101 -125 213 -76 131 -114 207
-108 213 19 19 397 236 407 234 6 -2 65 -97 131 -212z m2924 -44 c67 -115 123
-210 125 -210 2 0 88 49 192 109 103 59 198 113 210 119 20 11 27 1 142 -197
67 -116 121 -214 121 -218 0 -5 -93 -62 -206 -127 -197 -114 -207 -119 -221
-100 -8 10 -64 106 -125 212 -60 105 -114 192 -118 192 -5 0 -102 -54 -216
-120 -162 -93 -211 -117 -220 -107 -14 16 -234 397 -234 405 0 5 416 250 427
252 0 0 56 -94 123 -210z m-2261 -85 c48 -83 101 -175 119 -206 l32 -57 -210
-121 c-115 -67 -213 -121 -218 -121 -10 0 -234 387 -236 408 -1 10 69 56 204
134 113 65 209 117 214 115 5 -2 48 -70 95 -152z m-2292 -30 c27 -46 29 -55
15 -55 -40 0 -285 -31 -295 -37 -7 -3 -9 -3 -5 2 8 8 240 144 248 144 3 1 20
-24 37 -54z m2994 -205 c65 -113 119 -208 119 -211 0 -4 -80 -53 -177 -109
-98 -56 -192 -111 -210 -121 l-31 -19 -118 202 c-65 112 -118 211 -118 221 -1
12 54 50 194 132 107 62 201 113 209 112 7 -1 67 -94 132 -207z m2927 -50
l120 -209 -216 -125 c-191 -111 -218 -124 -226 -108 -5 9 -60 105 -122 212
-76 132 -109 197 -101 202 7 3 102 58 212 122 110 64 203 116 206 116 3 0 61
-94 127 -210z m-2238 -122 c63 -110 116 -206 118 -213 4 -15 -418 -259 -428
-248 -11 12 -231 397 -233 407 -2 7 408 254 423 255 3 0 57 -90 120 -201z
m673 -186 c65 -114 119 -211 120 -217 2 -9 -396 -245 -413 -245 -8 0 -245 409
-245 423 0 7 402 246 415 246 3 0 58 -93 123 -207z m-2226 -145 l122 -212 -24
-12 c-21 -12 -28 -8 -98 60 -94 92 -208 193 -270 239 l-47 36 92 54 c51 30 95
53 98 51 2 -2 59 -99 127 -216z m2925 -47 c65 -113 114 -208 109 -213 -4 -4
-101 -61 -214 -127 l-207 -119 -33 57 c-151 258 -209 364 -203 370 17 17 412
241 421 238 5 -1 63 -94 127 -206z m-2237 -125 c65 -113 121 -208 125 -210 4
-3 101 49 215 115 114 66 209 119 211 117 8 -8 244 -420 244 -426 0 -7 -405
-241 -417 -241 -4 1 -62 95 -128 211 -86 150 -124 209 -135 206 -8 -2 -105
-57 -215 -120 -156 -90 -203 -114 -212 -104 -15 16 -233 393 -233 404 0 6 416
253 426 253 1 0 54 -92 119 -205z m2907 -55 c65 -113 117 -209 115 -215 -3 -8
-402 -245 -412 -245 -5 0 -245 419 -245 427 0 11 402 243 414 240 6 -2 63 -95
128 -207z m-1539 -314 c64 -112 117 -207 117 -212 0 -5 -73 -51 -163 -102 -89
-51 -185 -106 -213 -122 l-50 -29 -122 211 c-86 151 -118 214 -109 220 256
151 404 236 412 237 6 1 63 -91 128 -203z m657 -158 c58 -100 113 -196 122
-214 l18 -32 -211 -122 c-116 -67 -212 -120 -214 -118 -22 25 -246 433 -240
435 6 2 98 55 205 117 107 63 200 115 205 115 6 1 57 -81 115 -181z m-1519
-348 c65 -113 122 -204 126 -203 4 1 94 51 200 112 106 61 199 114 206 117 18
6 264 -413 251 -426 -5 -5 -99 -61 -209 -124 -176 -102 -201 -114 -212 -100
-6 9 -62 103 -124 210 -61 107 -115 196 -118 198 -3 2 -102 -51 -219 -119
-210 -122 -213 -123 -226 -102 -38 61 -226 391 -226 398 0 10 412 250 423 246
5 -1 62 -95 128 -207z m-197 -679 c66 -115 118 -213 116 -218 -2 -4 -67 -45
-145 -89 l-140 -82 -2 57 c-5 119 -26 310 -43 396 -10 50 -16 91 -12 93 4 1
25 13 47 27 22 13 45 24 50 24 6 0 64 -94 129 -208z m505 -875 l120 -209 -206
-119 c-113 -65 -211 -117 -217 -115 -15 6 -250 416 -243 424 19 19 413 240
418 235 4 -4 61 -101 128 -216z m-559 -18 c0 -7 -173 -108 -177 -104 -2 2 5
45 16 97 10 52 22 125 26 163 l7 69 64 -109 c35 -60 64 -112 64 -116z m-240
-599 c29 -49 51 -92 49 -94 -17 -16 -250 -142 -246 -133 22 52 142 317 143
318 1 0 25 -41 54 -91z"/>
<path d="M19102 17999 c-53 -31 -60 -49 -19 -49 13 0 49 -7 81 -15 33 -9 61
-14 63 -11 5 5 -57 106 -65 106 -4 0 -31 -14 -60 -31z"/>
<path d="M18000 14058 c17 -29 38 -68 47 -85 9 -18 19 -33 22 -33 4 0 44 22
91 49 l85 50 -30 11 c-17 6 -52 16 -80 21 -27 6 -73 17 -101 25 -28 8 -54 14
-58 14 -4 0 6 -24 24 -52z"/>
<path d="M11482 11288 c-7 -10 5 -26 45 -62 l54 -48 -37 61 c-38 64 -45 69
-62 49z"/>
<path d="M14710 9690 c-8 -5 -10 -10 -5 -10 6 0 21 -3 35 -7 22 -6 24 -5 11
10 -16 20 -20 20 -41 7z"/>
</g>
</svg>
